<mxfile host="65bd71144e">
    <diagram id="ak8vAZ-X34Ic7wiylsI7" name="ページ1">
        <mxGraphModel dx="1500" dy="1985" grid="1" gridSize="10" guides="1" tooltips="1" connect="1" arrows="1" fold="1" page="1" pageScale="1" pageWidth="827" pageHeight="1169" math="0" shadow="0">
            <root>
                <mxCell id="0"/>
                <mxCell id="1" parent="0"/>
                <mxCell id="10" value="" style="shape=image;imageAspect=0;aspect=fixed;verticalLabelPosition=bottom;verticalAlign=top;image=data:image/png,iVBORw0KGgoAAAANSUhEUgAAAUgAAAEpCAYAAADxvLvMAAAABHNCSVQICAgIfAhkiAAAABl0RVh0U29mdHdhcmUAZ25vbWUtc2NyZWVuc2hvdO8Dvz4AAAAzaVRYdENyZWF0aW9uIFRpbWUAAAAAADIwMjLlubQxMuaciDEx5pelIDIw5pmCNDnliIYyOOenkv1Gb0oAACAASURBVHic7L19dFv1mS76TB3RWLCsUIsgl0okglpp7RSJHrvB5tZuY05t2hgPnlu7neTU7j3kcpPekq5jzkDXIfUk05XM4LOasFZ8mGStkelNqN176gb7suKskU8tH6wGNDMWgzVFGmoTiRlkKtFYp0hJbab3j53f1v747e+tjwDPWixie2t/SNrPfn/v+7zP+0d/8zd/84dkMomhoSFYrVZoRTqdxpEjR3D8+HHVr8/lchgZGYHT6cTg4KDmYwqxuLgIv9+PlpYW9Pf3a359IBBAIBCAx+NBKBRCS0sLdu/eDZfLpWk/uVwOU1NTCIVC6O7uRkdHB/VYU1NTyOfzqK6uRkdHB7q7uzWfsxbE5uZwqqcH+bU19nf1bW04eP48rFu2mHKMRCSCkfZ23jF2P/YY+k+ckHxN7soVjLS3I/nqq+zvWr71LQyOjYk3fvFHwGuzzL+/egjY2VH4HfmZ4OrvgNkzAAD///sqQs89x/7Jec89GJqbo173wtgYxjjfx2qbDUNzc3B5vcDqMvD8k8C194Cdu4Gvfo9+URLnRHt/nlpcZPZNQSKRwMjICPL5PLxeLw4ePEg/ngwWFhYwPT2Nw4cPi+5Ncg8mk0lUV1djaGiI+b6vLgOvBYCO/cyG3OsmaP0KcHej5vMBALw0A/w6Wvj507uY92rzLczn9vyTwDsrhb/f1QDc36m833/6eyA8V/hZ+Blxvz9yn9/qMjD5F8DaOwCAqvPnzw8vLy9jZmYGTU1NsFgs6i70OqxWK1KpFFKpFDwej6rXWCwWNDU1YWZmBsvLy/D5fJqOKURdXR3a2toQCAQwOzuL7du3w2azqX692+1GKBRCU1MTBgcHEY1Gce7cOVitVrjdbtX7sVgsaGxsRENDA6anp/HKK6/A4/HwvpxutxtNTU1IJpNYXV1FPB5HJBLRfM5aYN+2DU39/YjPzSG7ugoAyFy+jPD4OOrb22FzOAwfw+ZwoKGzE+HxcWxcuwYAWHn5ZWTefBO+nh7qayybN6Opvx/RmRn2vJKvvkp/Tf19zP8TrwH/fAmwbQXu/1NgbRV46SfMz7df/6w23cRsX38ffD09yLz5JkvC2dVVRGdm0NTfD8vmzbxDuLxe1G7bhsgLLwAANq5dQ3h8HA2dnbDd/RnA/XngV/PAv8aY45JzEp6n8JxWl2H726fRsP9xhKcvsu8Pu2/K+2+z2dDQ0ID5+XmkUilkMhnN94nL5UIymaTe2+QejEajyGQyiEajaGlpgeXWrcx1AsUnx527gYf+jPm81laBn/6AT46fuRe47wF1+77tk8DvssBvf8P8/M4K8PGbgTt2MD+Tz+V2tzw5Pv8k8N4V9ldVw8PDwz6fD8vLywgGg2htbdVwxQycTif8fj/a2tpUE6zZJGmxWNDa2or19XX4/X40NDRoIhyHwwG/3w8ACIVC6Orq0nQ9XNhsNrS1tSGTycDv92N9fZ338LBarWhtbYXT6cTS0hIymQzm5+cBQPVDRiusW7agqb8fqddfRyoWAwDk19YQHh9HjcMhGcloASHJlUuXlAnvOqRIMnL+vJjEXDsZ0vnnS8okyYGvpweZWBTJpX8CoJ0kVy5dYra112knSQC4eAp47wpsn3LC/c2DbETL27fgPADme1RbW4tIJIJkMglA+/eD3NtyJBkOh1mSZLcRkqPl48ADvYDr05qODwD4/VXgxeeBf32z8DtuFLe6DPx4CMi+U/h761eAnV/QdhzX3XySXPkH/nfi+kOTitcCDEG/v878bPk40PY1hiAB5o2cnZ3VRVZ6okjAfJIEmAitpqYGZ86c0USSdrsd6+vryGQy2L9/P3w+ny5y5MLj8aCpqUkysiWRL3nv4vE4QqEQnE4n7Ha7oWPTYNm8Gc3XUxDxYBAAc5MSMvC0txs+hs3hUB8Vcs5L+BpJErvdrZ0kV5fhe/d/IPObNSTfzsrvH2KS5G2rhSRXl4HIBeam27kb6PwO7Nu2Se+bQpIul4slyXg8jtraWs2pH0KS4XAYzc3N/PfeYkF9fb2YJEPnmOsjuGObdsICGHKc+WmBtAA+OSZeY4iJS8T3deiPUl13A4k3gKs55ud/vgRs3Q7UOqVf81oAeJGTCrJ8HOj8OuBwFggSgCGyIlFkV1eXptdxSXJ9fV3TklYKLpeLJUktUaDH44HP59OVi5UCiRZJZLu2tga3282ek8ViQXNzM5xOJ5aXl5HJZBAKhZDL5XjbmQlPezucXi+WZmbY5V48GEQyEkFjZyf1RtUCuaWzp72dun/ymmwqpbwc1kKSnEjI1/+nyFgcqpfbuStXsPLyy+Jt1ZDk6jLw0vMFcuQs62j7zqZSkg8Ql8uFTCaDZDKJSCSiiyQ9Ho9kAESW84QkU6kUmv/0u8x1kSVv9rfALTXAJ7aqPyiNHHc/ArQPMP9+LQBM/pAftXV+Hbhju6ZrE2G7B/iXNwskufwPzOd1y6307W1bgeW/Lyyt/+194LY64BNb+QRpJKKzWq1YWloCAM0fnsViwfbt2+H3+1FTU6P59TS4XC6sra0hEomYEpkahdvtRltbG0KhEKanp0VRYl1dHVpaWrC+vo6VlRWsrKwgHA6jtrYWdXV1pp9P3Y4daOjsRHRmhi0cpGIxRGdm0NDZabh4I0WSctGSZfNmyZyh6JyEJPnpXYDvQT5JXnuvEJ1cJyktOcnGzk7pbYUkKUHKUgUB4b6Tr76K3JUraOykFyR8Ph9LkrFYTHMKSenepuY8v/5/8Uky+Wv1JPm7NeBvJ/nk+NVDzGcEAOEXgIujhb/dXMMs4bUQsBSqNjEkuRID1q8xBPyreT5JXv0dk/pw7WQKRJ/5Ip8kr18rjyABYxGd3W7HxMQEtXqrBPIBnTlzxjSSdLvdOHPmDDo6OooSiWkFiRZra2tx+vRpNiXBjSYbGxvh8XgQi8WQyWQQDoeRTCbR2Nho+jXYHA60DAxg+dIlZC5fBsCQQGhsDO5du2Dfts3Q/jUtnTmgkVhobExc0LjdzRDjr+aZCM52Oz//99osNYLTQpKy23JJkkQp7/+eyacpVbuv7zty/jz73qy8/DJqt22TzAf7fD7EYjGsrq4iHA4bIsm1tTVROkyY88xkMvB176MShyyRvfsO8OJPgPeyhd9xq/ov/gi49N8Lf7v1NuCr3wRuMbFIufI68Ot/Kvy86Sbm+LfcWqiWr/wDc22f+aIkSYoIEtAf0dntdiwuLgLQHkUC5pOkxWJBJpNBNps1ZeluFkjucXl5GX6/Hw6Hgxcl2u129iETj8eRSqUQDAZNe3BwYdm8Ga0DAzwS2Lh2DaHnnpO9WbXsv+3RR1UTEoGQmHgVZS5J3nIr8Nkv8vOO195jokqAv6ST2b9hkky8BvzdFHODZd9RJEcC4QMk8sIL8LS3Sz6cfD6fuPKs4cFpsVjQ0NAgeW9zc57JZBLYdBM8PY/wiSP1FpOTrL5ZfIB332GW1etM6gYfvxnoPMiQE4naiNwGYMix8+vATcbSOjy8sQQsXCz8/PGbgW8eY74jwmr5e1eYa/M9yJCogCSpBAnoJysjUaSR40ohmUyKqsiVABItut1unD17FrFYDG63m5f/9Hg88Hq9WFlZQSaTQSQSQSwWE0mHzICvp4dXPACYm1WuuKJ1/3pIUlJ2wyXJzbcU/s1NuHOXdAbPSZEkP/NFhpTfWVFNjgDzANm+axdPHrV4/ryk/Ee28qwSVqtV9h4TFYZur4PrK39aII5/e59ZvgpJkkaO3zzGPEC4URvBXQ3Msrpqk+pzV8QrvwD+4aXCz1u3A396jCnS0KrlAHNNJI8sIElJggT0kZXRKFLvcaUQuy5pqTSCJLDb7WhpaWElQRaLhRftEsmQ1WrF8vIyVldXEQqFRNuZAZfXC29PD+9mlZTc6ACNZILPPitJBuScaCQpmQKYPcOIfIXicQ3npIskb6lhbqxNNxVE1ipB5FHzf/3XvGtse/RReq5WUHleXl7WLM/j3mNut1ukmhAVhm6vg2vXA0w64f11MUm+sQQEXxST4+1uYwJwLXhpBoj/Y+HnrduZc7jlE3TZ0h3bmOITwJybkCQXL8gTJMB/I9XmPIxGkcLjCpegWlDpBAkwX3iPx6NJYB6NRhGLxeB0OrULzK/+DvjxfwI21gtC2usgMh2uqFwNkamF6qUzBzSSlEwBbHUD7nuBz7bpPic9JNn26KPMjeXaqfq4XNgcDtE1ykXY3Mrz6uqqLiG5zWaDw+HA6dOnqfc2tzAUiUTguXcX7E3/nk+Sv3kbeH8DuDTL/AzwyXF1GfB/V6xx9LZoe4Pk8PurwN/+jMmPEuzcDTz0n5nVxWsB4IW/4pNj59eBz35eWly+6SbA/XllggSYN1KLttCMKJIc1+12S36AanAjECSBWoE5N5rUJTB/4a8A5IHLrwKXlxhC2XRT4TjXReVcyQ0hMjNE5b6eHli3bEH04kXevrWQJMCkAEQkecut8po3mXMyQpJmpCJcXi/vfcmuriL1+uusdlUIcl+SfGEul0Njozb9YF1dney9zSXJxcVFNHzhfth8Xy6Q5NUcXwC+dTvQ+18K5GhmJw4NREqUThV+R1Icm24qpFyEUiJSZJITl99yqzqCBPjaQjVkZbVadXfmcGG323UJvwkmJibQ0NBgenGjmBAKzB0OB28JRCRDXIF5JBIRbUdF4DTwL/8IfPkh4O4G4K048PczwCd38HRiRHIjJLLICy/IylHUwr1rl7r8Ige0FACVJHXCCEkqieHVwr1rF2+/qVhMdr/cfOHKyooujST33m5qahLltz0eD1sYCofDDEnesa1QCCMgS9ott9M7U776TeMaRy5IzpMskwF+UU4oJSIFIVstfz+uu4FUslB1J9ra293qCRLQRpLZbBaxWMwwQWo9LhdTU1NYW1vTZWBRbpBocdOmTYoCc9KuqCgwfy0AhMaB7n1M1bBqE/PlWM8BgR8zBCnoQnHv2iUSla+8/LIponKp/KJjxw7U7dhBfQ2t59vMTiAtJOlpb9fUMaTlHGJzc6z0Kvnqq7IPAZfLhVwuh5WVFd1CcpfLhfX1dUxPTyv2bYfDYTR9rQ/Wum0FkiTkSJa0tM4UMzSOBIQciRgc4BflaFKizq8D1beACtfdfHF54jX1S2zefjhkRUvuEhAdn7C1SS+0kmQikcDZs2dx6NAh0yu+pYTL5VIUmLe1tYkE5qJ2xdVlZmn9lT8R681u+yTwSRdw8Tkgt1YwKyDHuC4q5/ZYE1H59l27DOUlqSQ5MSFLCDSSjAeDJa+4azLb0HEOQvmP3HvS2NhoSEgOMJGiUt82Icl4PI6mr/XBYr+DKW4QcnzxR4UedIAhpu595mocE28A/+MFfkHoof9cyDtznXsA4PZPMdVyOSkREZcTkrwuLtdMkABz05LkLk1Ck8vlcObMGfT29praU6yWJHO5HEZHR9HR0aE5J1OJ4ArMiSSIKxy3WCxYW1tDLBaDzWajR5PBMWDtbWD7Drp+rfpmwPM54NU5YPFioSJ7HaR4IxSVy1aUVYKQZGxuTvXSmZAktxPILHICyk+Sls2b0dDZidDYGPuexObmZFMQRoXkZB+EJNva+IUuoqEMhUIFidHX+mBpfoj5rgiJqVgax/kXxQWhOz/HFB9/+gP+0v+uBuDLPeqkRFWbmBbDlRiz//fX9REkwEQuTU1NbNXVarWyy+ozZ87A4/EYqmJLQQ1JHjt2DE6nE729vaYfv5wg7YjJZBJ+vx9LS0sIhUKYnZ1FNBrFY489hq6uLno0ed/XgI9tAmafB6qt9OVO1SYmgf7bFPC3f8NU82y3s38monJuHzGpKFu3bIF71y7d1+byeqlLZyWSbBkYKEoEB5SfJK1btvDeE5KCaOrvl2wF5QrJjZDkK6+8gng8LqqMEw2lSIf5bhKYe05cDJFa0upBJMT3fOQWhIiUiGuwoUdKVH0zI/+5TpJVd95557DeXmWr1co+ZYLBILus7urq0mxaoQWEJM+dOyciYVL91WMweiOACMybmprgcrng8XjQ2NiI/v5+2Gw2arsiG03+bw/CsqMFCP4USL8NOD5Ff7LesR2o2QJMn6I6oTR2dooqytGLF2XNKNRAKr8oR75S5BSbm4Ovp6co2s1SkqTN4YBjxw6EJyYAMA+k+NycdD+7lM+jxjZVn8+n2LdNSDKbzcJ3/5cLbZdEApRKAp57dF87Dy/NAL/iiMy5BSGal2RTO/D5L+o7FiHJ+D+i6rbbbhvWk9TlwuVyobW1Fa2trWhubi6KuQLtmERrST78qakpxONxHDp0qCJ6r4sJq9UKu93O/icEEaBzo8loNIrtO++F7f6HgTcWgX98iVlS0Jbcv/lXIPu/mIogZ6lNICUqV+qOUQKNJKMXL8oWhWjklLl82fC5EJSbJOt27BBZpC1fuoTWgQHq9mZ026gxtyBG02zf9v1fZgp9ZIl7NcdIaFx367puAIyMJ/j/AW9yIsNP72Iix823SHtJegyqGqpvZswq7r333mG9la9yIxaLoa6uDna7nbWXHxoaKpoz940GbjS5uLhYMObddBM8f/wI8Ic/oi+5332H6Yro+wvmCS0Bm8OBtkcfFZlRGBWV00hSqSik1xhDLcpNki6vl3f8zOXL8h6bUj6POkhycnIS1dXVIn6w2+1ic4uv9DJ5QdJSSPSFDu3aVFbjuPpW4XdcF3Jad4wRL0khPrEVVd/5zneGjfjMlROhUAgej4ctCg0NDZUker3RYLfbqbrJ7fd3wXZvB3/J/f4G86XcvV9UzaaBZkaxce0a5v/6rw3pE6XIV06s/kEnSV9PD5KRCOsIT85DSt4kXArraUkkRKumbzuZTDIcsusBvk3a6lvavSRpdmn/rhvo/A7zb6nuGDN1lrg+k8aoGWe5MDs7C5vNBr/fj76+Puzcqa/N68MAmm4yHA7DcutWuB96pLDkTrwBfOpzjAGtBghF5QAMi8ppRKMkVievCT77LBt9EmI1Y/5OuUmy8XrlnuwzHgzKF7JMaklUMrcAwD54a2tr4dr9dSbCe/d69Jf8NRNFqpH7SNml3fe/M/9W6o4xEexMmhuNJMfHx5FMJrG8vIyHH37YFEH6hwFcqzW2p/vXK/D0PAJr9c3A6mVGU0bJOyrBvWsXPO3tWDx/nicqN1IwIUTDlReR/Uauu94IK7pEIsNdopP5O8XoJy8lSZJ9hsfHWXlT5IUX4O3pkbwuYUuiUZKkVcY9Ho+YQ9p6+DZpiTekbdIIUkkmcqTZpQH07pgvP1QUcsQbS/yZNDcKSS4sLODnP/85rFYrPB5P0cemftBABpwJHYJqPtMM10P/py5yJLBv2yYSlZOCiV5ROc2zEpA39xVWfwF17YxqUW6SrG9v5z0AFNs0BUthPX3bSp4MQg7x/rtm2HbtARYvFCrb//Im0+JKU0+8sQT8YkqscSSpHqnuGDNF6NxzWbjI10GKLtDrrbiCx+LiIs6ePQubzQaPx2PKXG0zkcvlsLy8jFAoxM7IDoVCGBsbw/T0NKanpxGJRLC0tIRUKoV0Og273V6WqrvQIYjcPEbdy4monDtBkSxz5doIlSAkJaCgwwTEuThh9Zds/0EgSZvDAfeuXbwJidGZGbQMDEhG6mb3bUuRZDKZRCqVYnSY9/j45hbr1xiS3O7hk+Q//T3jCMRe4Fbg60cKra+lEKETcDwlRUJx0QXqdNEpBhKJBEZHR2G1WmG1WrF///6KkfMQ4j537hzS6TSsViuam5vZKnJfXx96e3vR3d0Nh8OBmpoa5PN5xONxjI2Nsca+pY7aSc83wHcvN2IxBxQmKApF5SSi09s3TQiFTGUkkBo6JhyQxZ6Hic5E5SJJ4YTE/NqaYkHKrL5tokOmaSwbGxvF5haf/UKB4K7mgLV3ma4ugNE4LoULO9i6HfgP/5VRUEh1x5httEsg8JSkdtKILrACSDKXy+HIkSNstDU0NFQRPdYLCwsYHR3FysoK2tracPDgQbS2tqKxsZGVIAkjRLvdzoq8m5ubWbE76bfO5XJwOp0lJX+hezmpfHJn5ugBEZVz2whJ37ReUbmnvV0UGQKMFIhWjBEOyAIKxR4znIDKSZLk3MkDQ2lCIsDv2zZCkslkUlXfdjQaRUvXHzN924Tosr9lNJKJN4BfRws75ppemNUdoxYvzfDP5dO7pGfSCN07ykmSuVwOIyMjyOVyyOVyOHDgQFHmRmtBLBbD6OgoUqkU+vv70dvbqzv6s1gsrNi+vr4e0WgUZ8+eLcoMGjkQP0qAiSaTySTd+EIjSBuhsG/ayARFmj8kwERRNImRcEAWwQeBJD3t7ZomJALGpySSfSiZW/B0mF/rg+X9awXC++1vxPOy+44wOXBad8w99wHNX9J0jqogabj7Z9K92JVEkidOnMDGxgZyuRyGhoZkSSMQCGDTpk1FO890Og2/349gMIjOzk709/ebStY2mw0+nw9ut1vSXbzY8Hg89FZFA3O6aX3TktMKVcLl9Yqq5gRkng43ShUSE3fbG50ktU5IBMw1twiHwyLnLqpYve9RWHLv8okP4M/xkeqO+ayyLlcz5Ax3ITO0C6gMkvT7/YhEIlhfX1fUOhLiSiaTRZH9BAIBnD59Gj6fD4ODg7jrrrtMPwYBEXdLuYsXG5Ktitu36/78iyEqJ1VzbkWXQBil0hxyCMwyAi4nSdImJDq9XtmimBnmFh6PB7Ozs6r6tpeXl9E68J+A+C8L8p+vHirobkvhQk5AyJEbxQqmYCq6+ZjV/K4HU1NTiEQiAIC+vj5Z0iPbkvkuZtqckeV0Op3G/v370dzcXLL8INddnOYHWUxItirC2AgLsyco0loTCUiUSqrnQoccLlZeftk0L8dykCRtQuLS9QeEVIRuxv2tpm9bJFb/5ncZjWT7QEHjePV3wE+eLBAnUDxyfPcdYOr/EYvRBVMwVdmdmdH8rhULCwv46U9/CoB5yslpHUkfNiHHffv2mXIOuVwOP/vZzzA5OYk9e/awjjmlBqk019bW4vTp0yJ38WJDslXRQDRJWx4bceGhtSYSkOo5iRBtDgdqHA5R/pKcQyWQpJH3gWaRJjUhETDf3GJtbU30ABWJ1df+F3zf/j7fwZ4MPSOSIICZwe35nLkVa+F4WoA+BXN1Wb0fpBnN72qRSCRw5swZ2Gw2NDY2ymodibyGVIoPHTpkyjksLi5iZGQEdrsdhw4dKupyWi1IFwzxgDRCUFoh2apoYPysfds20QTFzOXLutsCaWTDBber5y7BTBwuKoEkjbgRCR8AShMSAfPMLRoaGuD3+1X1bQOUlcgtt4pt02i6Sb2gder8h/8q9h243uutyTBXmE8oBkkmEgmMjIwgn8/DbrfLah2JLpIsOYeGhkw5l0AggImJCRw8eJBnp1YsJBIJ1vz2woUL7AAuGvkRolpfXy9LbpLaqhiL6S4kkQmKXFE5aQvUo1NUIsnM5cus29BOivyHwCxPSa0kKRTX6yVJrRMSAXPMLYihrhpzi3g8TpcY3XIrY9bM1U2aQZJSnTqCOUzcXu+qb3/728NaopBikiSR81gsFtjtdlmtYzqdZp3DU6kUDh8+bEql1+/3IxqN4sCBA0WJGoVkODY2hvn5eba7IZPJIJVKKeb6SBcMmXxY6miS2qqoU5ZEROVAQc9HdIqAdlE5rRjEBSkMWbdsQe/x45LbmeUpqYUkm/v7VQ8NU4LWCYmA+eYWtLlVLpdLWYdpu53ppuF6S/7mbf35yOutgyyUyPE6qt5///1hrZWrYpAkIcdUiim3y/k65nI5nDx5ElarFalUCkNDQ4YLF7lcDseOHcP6+joOHTpkSiEkFoshEokgGAxienoaZ8+eFZEhADidTjQ2NqKlpQVdXV3I5XKqcn0kN0miSSPLXT0wu1XR094umqAo1SGjBrTWRC6IC/qe4WHeMp8Ls+zSjM7d1nsOtAmJSuMxzDK3IHOr1PRtO51OcefW7W4+Sb6X1WfASxvV8O1nxF6nlIFjVZ/73OeG9ZT3zQjHuTh9+jRLGEq+jseOHQPARJEHDx40HOmRpbrT6cTBgwd13dw0MgyFQohGo0gmk8hmmWqZkAwHBwfR1tbGah/tdrso16cmmmxoaCiLbtLsVkUyQZErKidmuXpE5b6eHlGrIRfJV19FfG4OfSdOIBmJfGBJkptyiF68qCirMsPcoq6uTrW5xdLSEp2DbneLDXi1kKTUqIbNglk5Er3eVQ899NCwXg2UGeE4wCxrw+Ew8vk89u/fjx0yui2/349UKoW1tTX09fXpOh4XsVgMJ0+eREdHh+YhX7FYDCMjI5iYmKCSYX19PbxeL9ra2rBnzx7s27dPRIZSILk+tZVj0gVDdJNGe6m1wsxWRSIqF05QlHLuUQJthg4X2dVVLJ4/j5aBASQjEZH8h2xjhqdkOUiS5pGpNCERMN/coqmpSfTg9vl8iEQi8jrMO3bwDXh/+xvg99eUzXGFrYOuncDX/5xPjld/xxjv/up/Fn7H6fWuevHFF4eNCEWNhuMLCwsIBALY2NjAwMCA7Bxtv9+P2PUEdltbGx544AHVx5E6tt/vx+DgoOboN5FI4OTJk7JkSHqyXS6XrvwgrXKsFE16PB643W7qeNhiw8xWRZrFGXHu0SMql2pNJNi4dg3xYJDJ23F8J7kwy1OyXCRJk/+oIUkzzC3W19cxPT1NTcUJm1FoRIr6+/gkmX5b2qWcNsdm525mjg3Xyo/0eieXCr8T9HpX/fCHPxxWdYIKb4BoNoUKklxYWMDY2Bg2Njawe/duPPjgg7LbBgIBVuvYL1ONU4OFhQVMTExgaGhINmKlgeRLs9ksnE4njh49ivb2dkNkKAdaNClXOSZdMGQ8bDmiSbNaFc0Ulbu8XlGOUwgpciQwyy6tHCRJm5CoZJEGmGNu4fF4FPu2CQfF43F6TaP+PrFLuZAkpebYkDZGAkKO3JbHz9wLoRbW6wAAIABJREFU3McPuqqGh4eHVZ+gDLSSJNE6kihJTtxNyMxut8PhcGD//v2qz0tuf0p93TRwi0m1tbV48sknS5LvI+9TbW0t2z8bCoUkCzOkC8btdpdNXG5Wq6LUBMXI+fOaSYLkOGmdNGpxI5Ok0CNTjUUaUBpzi4aGBoRCIfnCr/tevkt58tcMQdo+QW8dvP+bQIeAL1aXmY6dd/+l8LvWrwA7vyA6Z1YHqfoEZaCWJLlax7q6OllxNyFSskTTW0QhMEKOAFNMisfjqK6uxmOPPVZyVyGXy8WrHCvpEEkXDLFSu1FbFYkJL7farHeColxrolqYMZgMKA9J0izS5MbIssc30dxiZmaGTccQEA2lrDpm003AZ77IJ8l/eZOZzBl8kbFRI/jqIaDpIf4JkF5vle2MPKG4qhNUgFL1K5fLYXR0FLlcDnV1dbLibkKkTqcT2WzWULS2sLCAUCiEmZkZ3eRIikkA8OSTT5ZtJAWpHAt1iHLRJIk+STRpZq+6EsxqVSSi8mwqxctL6hGV0whXDZz33MPb3gwnIDNIUmuFX2iRpjRGlj2+CeYWPp8Pr7zyCuLxuKK5RTabFQdZQpL8t/eZSFJF66BoTOwDvYDr05LnKuqkMUPjKFf9OnbsGJLJJGt6K6d1HBkZgcPhQDKZNBStkVznysoK6urqdHXHkH5vABgYGKiICYpCHaJSNElymeUSl5vRqmjZvFk0QVFp0qEUCOFKdd3QkF1dxe7HHkPq9dfZ6LMSSFKPbRxtjKzSe2iWeY3P55M1t3C73QiFQtIr0U03AZ/cwe/bBhhJUN8RJl/JxWsBxl9SOAnxtk/Knie11dAskhRWv2ZnZxGNRlFdXS2rdeR21BAhuN5ojZAjQTab1Xw93H3s2bNHV/U8nU6zHzb5D4Dh/KVUNClVmCFdMDd6q6J71y5RwWXl5Zc1i8qlWhNr77wT1i1bWC0mF6nXX0ffiRM8l/Ryk6TevKhwjKwaH0mzzS1oJGm325XTdcK+bdIdc4eg6CrojtEyJvaP/vCHP/xB6o/cXKHT6dQ15sDv9yMUCvF+d+DAAdkCzqlTp5DJZJBOpxVtzuTAJbaWlhbs3r1b8/Vw34OWlhZVQ8ICgQCmpqaQz+cVt21paUFfX58phZ50Oo3R0VHWCMDr9WJwcFC2XdPv9yOfz5fFpZ37PlVXV0t+1rFYDLW1tdTzS0QiGBsY4HXLOO+5BwNjY5rJyj8wwA7BIvup3rJFNP8GAKptNhw8fx6nenp4JNryrW9hkPNA1gPaeQzNzVGX0AtjYxjjfCerbTYMzc1puvbclSsYaW/nvYcDfr9iTtIMfiDBUH19PVWZwr2HBwYG6FywugxM/gXw8H8Rtw6+9DzzH4HGYV+yZhXCSDKVSsnqFGngVr8AsB0kUvD7/VheXmaF4GaR4+DgoObrIf3e+Xwe9fX1OHjwoKrjnjt3DhsbG7zf19bWwul0ora2lv2PvC/BYNCUSM5qtfJ0iEpdLST6XFtbq9hWRb/fj4mJCczOzlLlJSSXKBSVh8fHNYvKaRFc7soVtD36KG9JDTARWzISweDYmMiyzagTkJZIUqjv1BNJ0nwk1QjJzeimI5GknAMQADZvLWlu0fQQ838uXvwR8HdThZ91TEJUdPMhb8L8/DxSqZSubhkuSSaTSUkdVSAQYIsgjY2NuuddJxIJPPPMMwAgivrW1tYQCoWwsbEBt9steS2k3zuTycDpdOLQoUOKS4jFxUWcOXOGPe7hw4fR3d2N7u5udHR0oLW1lfef1+tFKpXC6uoq4vE4QqEQamtrDWsWaV0tcj3SHo+nIlsVZ2ZmeKsP0nEh/MyIqFw4QTH03HOKfcdCCFsTN65dY5fUmTff5C3Dyb/3j4/zij03IklK+UhqIUm93XREQSPlAOTxeLTrMIWtg7d/iinIaBwTq8ruzGaz6RKCc6HUnL6wsIDJyUlWCK533jUJ+zc2NuB0Onl2acIlgZyVGikmkXypUjGD9HNvbGyoXorbbDa0trbC6XRieXmZJbNYLAan02mogCLsalGKJiuxVZGsOgYGBuB0OtnunEgkQs150VoKiSGFlgmKwv1sXLuG2PV+7fWrV9miBsCQYf7KFewfHzd1fAJQHpLUIyQ3y9xCjiSF/OH1eun3h9SY2C/36LJKU+0Hqbdbhgup5vRYLAa/38+a3uqddy2XE9GSLyGWZ0rFJKnjajXtJZV1AOxyc35+3pSxq1p7pCupVREo5J08Hg+vAh4MBqkSEylRuVYpDJVwJibQ+cQT8LS3sxV0sv/U669jcGxMFEnqEbNzUWqS1CskN8PcgkuStAe0z+dDMplEKpWiS4yKMCZWk2GuWSTJbU6vqalhyRGA7nnXXJKqrq7mFR2I9pIsl+WOMTU1hdlZJjRXMs6Q2rdeQvF4PGhra0M2m2XTEWbkJ7X2SAtbFZWMNcwGIfW2tjaenKqurg4NDQ0s2c/Pz0vmJYXjF/SYXdD6tyMvvICm/n50HDrEyz2mYjGqK5AZTkClJkmakFzJbBcwx9yCSHykbNIaGxvpOkzamNimduDzX9R0fCE0ESRgDklydVSRSAR1dXVIp9OqlrI0CMmRKwsiVTKyXJYz1uXOwVEyztC6b7WwWCzw+XxFyU9q6ZEmXTDE06/UrYo2m03StaipqYkVncvlJWkTFLXmJWkRKZkWuGd4mPd74grUcegQbA6HKVZlBKUmSaGQXI3ZLmCOuYXdbpe0SZPVYb42y++Q2e5RJeWRg2aCBIyH09yLzGazyGaz2Lt3r2bTCIAfwQHA3r172ahDSGByxrpkciHAFFjUFIi4bYdmmPZyUaz8JK1HWi6a5M7BKXWrohSI6ByAYl6SZnahNS9Ja02MXryIjatXsffZZ3m/37h2DdGLF+G8boxxI5MkzWwXUHZ4N8PcgmuTJkWSPB3mfa2wfG63uE9byvFHJXQRJLkAI+G0kCT1NMBzCRAQ66SEhRap8yPWZVoKLKVqO5TKT+p1xwH4PdJqo0luq2KpxeVSEOYlw+Ew6uvri5KXpJFk8tVXsXH1KtoefVRko0bIxLFjB09+pKd3nItykCQ3VREPBlUJ4s0wt5DzkqQOGSsCSeomSHIBRsJpYbispbdTSI7CqE9YaJE6L6F1mZoCETdPWaq2Q2F+cmVlBcFgUPccGEA6mqSRDMCQdbnm4EiB5CW53yFagl8uL6mWMGj7ICMMdh86JCJJoqO0ORysmNwMJyAzSJLMCVcC6TQKj4+z10BSDEqvN8PcQs5LkqrDbPuS2MzCAEkaIkjAeDgtJMmVlRXFtiUhOXq9Xp4FGrd7R67Qose6TJinNDJmQitIftLj8bD530gkYmiqIC2alHPcEc7BqYRo0mazoaWlhUeSVqtVJHqXyktqceWRmmOdefNNuHft4kmAyP7za2uovfPOyiLJiQlN11zf3s6LnpeuR99K52+GuYWclyRVh9n0BdNI0jBBAmKNkl6SDAaDqno7T5w4gZUVplolnCPDJUelQotW6zKhEFyvkN0oiDsOt/+aRLROp1PXsptEk2odd0gXTDnE5TRYLBZWx5lMJtmbklZANGrCSyPJ7OoqLJs385bUXAh7ustFknr7x/UKyc00t5AjSZEO0ySSNIUgyQUYJUk1Bhl+vx+RSAQARFGfcOkrF91pzSHqEYIXG4SkSNtkPB7XPeIA0D7igbQ2EnF5qVsVafD5fLBarex8IKnijcvrhae9XdQmqFa3SEiSa71GyFLK5EIIMzwltZKkMI+qlSRrHA5eJLpy6ZLi+2WGuQUg7yUpLBwDgKdhp2GSNI0gyQUYIUklFyFudCiM+rQsfbValxkVghcTVqsVzc3NooJLMpmE2+3WFdVpHRgmbFX0+XwlkwPR4Ha7eSQv5WRu37bNkAkvsV7jEhR3Ga0WRp2AtJAkrdik5fjC5bra6jy1qKKTJKW8JLkkGY/HGf5x322IJE0lSHIBRqpXUiRJxqgSHDp0iB33KjSmkFv66rEum5ycxMrKimEheDFBlsgWi4VtLZQz0VWC1miSiNHLNQdHCFK8Id+jcDhMFbxLmfBqiexo1mNacaORJLdfXa2Q3KxR0XJeki6XSxykSZGk626g+mbZY5lOkOQCjFSvhG9kMBhkc44AE/WRN4bm2iMFMr6BLJPVDv6anp5GNpsty4gFLSB97KQLhvgtRiIROBwOXecuFU02NDRQo1MyB6ccrYpCENIm+S8itheuamgmvIC2vCTZhmaNphY3Ekk2dnbqEpKbZW4h5yVJ9X1w3ikmyZUYcMc2WZIsCkGSkzQ6Tpa8kVxfRW7UJ+faI4Qe6zKAqXRPTEygurra8CTFUoFUmsmAL6OTBWnRpFx0Wu5WRS7IzUTkUVKdNwBjwmskL+lpb5cdLasGeic2EpSSJPUKyc0wt+CS5Ntvvy1qVKH6PtTexhjsvjbLGOz+2/uKJFk0gjSicSQgfZnpdBoAc+MROQ/XtUco8xFCj3UZwdLSEsLhMBobGzV7YZYbLpcLbW1tPJ2jnKOPEogOUs2Ih3K3KgrPhdyApPNGyv7NaF5Saf62Ghh1Aio1SeoRkpvRsqzkJSn0fWhoaIDt9jv4LuQKJFk0guRegBGStNvtcDqdCAaDrMmEsGiiNOlQq3UZF+FwmB2DW269nx5wdY7ki0haFvVIc7QODBO2KkqJ0EsBj8fD3pSpVArRaJSaKjCal1QzfxsQDwDj4kYhSSNCcrNIUs4mTcg/TU1NsG5VT5JFJUhyAUZJ8uTJk+jo6EBjY6Nmm3et1mVCTE1NIZPJoLu7u6Lzj0og2kmg0LIYCoV0C721DAwjS/Tq6mqcOXOmrOJyl8sFr9fL5rdDoRD1+2g0L6lm/jbpzJHKWxq1SyslSeoVkgtJUq8DkBRJciVG2WyWDXYst25VRZJFJ0juSXJJsq2tTdVya3x8HLlcDvv27QMABINBlvCU3HO0WpfRQApAlaB7NAMej4dHbKTooqeIIxVNSrU/kpne5W5VJI5A8Xhc1jYNMJaXVJq/nV1dRf7KFTx8/DhPwC3cxojJRalIUq+QHFA5VkEBUiSZy+UQCAQQi8VgsVj4EiMVJFkSggToinolHVQsFsPk5CS+//3vs9vlcjmEw2FsbGzQZ+Zeh1brMqnjh0Ih1NfXl7SlsNggxCYsuugt4qiZLSM8NmlVLJe43Gq1imzTpFypjOQlCXFEZ2ao4vHs6ioyb76JwbExno+kcJsbhSSFQnK1JKlrrILw+BySXFpaQigUwszMDADg4MGDdLG6AkmWjCABhiS3b9+uWizq9/vR1dXF6h0BJqclUswLlmt6rMtoCIVCiMfjaGlpKfqSkIyFDYVCWFxcxIULF1jdZzGdgoRFnHA4rMt3Um62DG1fbre7bHNwCMjSnxiuECNemtu6kbykzeFAy8CA5Pzt7OoqkpEIDpw/j8ybb4r6uck2RpyASkWSRhyEjDaaAIXVgcvlYiVvDzzwAKxWK1Vj3dbWJh4fyyHJkhIkuQA1LYUkevv2t78t2gdVMX/9jdRjXSaFQCCAVCqFjo4O00TPsVgMsVgMkUgEgUAAMzMzOHv2LGZnZ1lCJjcq14zC6IwaKdDMKpSGfMlBy8Aw4RycckWTjY2NvIeu1HdSLi+Zu3IFjZ3S1v5S87cJsquriM/N4eD587Bs3kzNSxrt3zaDJNWYDZtJkh6PR1fqx263w263i+4ZIf+whSEJkiw5QdJOkvaFnJ6ehs/nk7xhaIp5u92u2bpMDmfPnsXGxgb27t2reT/pdBqBQICNBicmJjA5OYlQKMQSeyqVQjabBVAYC9vS0gKfz4euri7WLJd4QAL6zSiUYLfbWd9JbgSox05N68Awbqvi0tJSWcTlJOJYXFyUnXkD0POSKy+/jNjcHHw9PZLLYDUkuXzpEr49NiZZBS83SRKzYUVncZNIcnFxUZcDkBxsNhscDgf78JYjybIQJDlJKZJMp9OYmJjA4OCg7I0ibGsk8g211mVySCQSmJ2dhdPpZIlDC44cOcKaCWcyGXZOdn19PRtldXR0oLOzE/v27WPHwpKhWXa7HW63W9TFYsSMQg2EEaAROzWt0STJY5arVdFut/Nm3pCZSbQHhH3bNjR0dmLl0iWW7DKXLyM8Po769nZJEqBZrnGRuXwZmTffRNcTT4j2T2DU5MIoSaqVIBkhSY/HY9gmTQ7CVJ0USYoIMp1OlywXJEWSk5OTaGxsVDXGgdvWmM1mVVuXKSEcDrPno3U6WzqdxvT0NGpra9Hd3Y2uri709fWht7cXra2trKdjXV2d4odO8mQ0M4piRVokAlSrdVSzL6AQTUqRPFnul7NVkRA1ue5IJEL1lgQY8mjq70fq9dfZvGF+bQ3h8XHUOByy5CUkKS4IAbU/+iia+vuxfOkS1ULNSGuiVpKkGQUXkyTNkAcqgeoA5PEUSDJyoUCQiUQCTz31lO4Gcr0QkmQ2m0UoFFIUf3NB2hqz2SwsFgtaWloMv5HBYBDJZBJtbW2al5iLi4uIRCLw+Xzo7e1lx9kaAc2MIhgMFjVvJ6V11JMPJdEkty9aqmpOrjUej2NycrLkc3AsFgtaW1tVeUtaNm9mTRpI3nDj2jVVeUk1JNnc34/WgQGeOQQXpSJJOaPgUpKkcPSCUXAlRrx6xi23AratqPrGN74xnEwmMTo6inw+D6/XqzliMgrSUkgiI63LWiM6SylMTEwgn8+jr69P8wcyPT2NVCqFPXv2mLpMJGYU3ImHRkhLDWhaRzlXHzkQ5281A8NIeyCZg1OOVkW13pIA038szBuqyUvSzHsJuATU2NkpMrwlMNK/faORJCv0Nul7kEgkcPbsWbjdbjalxJLk7W5UXb16dZjoCvv6+srqkk3C3Ww2q7ntSPhGEjLRA+ESWSuMFHfUgEw8pJFWsYo4tHyonEekFLQODCt3q6LQW1J2Zs/17hmteUm5/m0uARHDW5qm0khr4o1Akg0NDQiFQoa8JGk4duwYHn74YfT391MlRlU/+MEPhj0eD7q7u8tuxpDP57G4uIiNjQ1dvZkWiwUOh4N9I/UUVwBGihMOh+HxeDS/J0aLO1pQ6iKOlEekHoG5lvGz5W5VVDsYDJDPS8oRgRJJkmU00VTS8pIfZJK0Wq2q5IFaEIvFEI/H2S49mg6z6ic/+cmwHq1RMTA9PY3m5mY0NTXpbmC32+1sNdvr9eqKNoj/ZFtbm+b8XjAYRDweR1tbW0lu4nIUcUhUx52wqIeYpaJJgL58L2erIm0wmJSQWSovqYYkhfIhAm6u0bJ5s2Re0kj/dqWTpFoNtVrEYjFks1leECQkybLJfGiYmJhAZ2cndu7cacjl45VXXkEmk0Fzc7Mu4p+cnEQ2m8XDDz+s+QYsl7lFqYs43AmLRj0nybkTwpVbvpezVVE4GEzOWxIQ+0OqGblK5EO0/m1hQYbkJWnjZvW2JpaTJKMzM2gZGJDvbxeQZCqV0r3yjUQisNlsoocxlyQrhiCJsJqY0hpx+SBL7JaWFs0kZcQgN5fL4dy5c6iurmbD9lKiHEUc2lJZj+ckIVy1Ix7K2aoo9JaMxWKSc3j0jFyVM7kQkqTL64W3p0e07Y1Ikvm1NVXnTEhyfn4eqVRKl00awMy1Onv2LLWgS0iyYgiS5B65TwOXy8VWEQGoflJMT08jn89j9+7dmklheXkZoVAIbrdbs9ypUsx1S13EkfKc1LPM1zIwTNiqqKfrRy+ItyTR4EoNBgP0jVwlJEkTigtfS9MpAsb6t0tJkkAhFaGW2G02m2EvSZvNhrW1NQQCAeq97vP5KocgZ2dn4Xa7RculmpoazM7OYn19XVXRY2FhAb/85S9RW1uL3t5ezedhxKDCSO6yGCh1EYfrOammxVAKWgeGkVbFc+fOlVRc7nK5RIPBpMTMUiNX5XqbScGH1pooNKWV6tAx0ppYKpL0tLerPg4XZhjuNjY2YnZ2ljrbBiih3ZkSSP6RlnMiEaGS5IY7lKuvr09XNGEkh3j27Fnk83ns3bu35M40UihHEUdLi6EctEaT3Dk4pWpVFA4Gk/OW1NPbLNe/TTOlpekqbwSS1HIcLiS7YTRAbgBYRRCkMP/IRS6XQzAYxMbGhqSzRy6Xw4ULF1iCcjqdunKAiUQCP//5zwFoN8g1qp0sNkpdxNFqWCEFWjQZDoep5y1sVUwmk1TrMrNBNLhcb0lAYjyujt5mQjxc6RAgTXy0vKSR/u0biSSF7l5qIDclsSIIkpZ/JFheXmaXV9yiC7FDm5qawuTkJKLRKDY2NlBfX69pKBeBcAiY1hwit71QT8K4FChHEcfsaJLkVOVGPJCHQTgcxvT0dElaFQmRk+oncSunfRf09DYT6ZDaJbRUXlJva6IZJKlGfmSEJI14SUqRZEUQpFT+ESjkBAGgr6+Pdfs5evQo+yUkpLZ37150d3frJke1Q8BoKFZ7YTFQ6iKOmdGk2oFhhLBK3apI2iPJkk+qwi1FImpaE9WSJDkG1+QXKB9JqiU7vSRp1HCXRpIVQZBS+UegkBPkdqaQThfi+djX14fW1lZdUYLWIWBSKHZ7YTFQ6iKOWdGkloFh3FbFUonLyZKPW+GmTU+kkUjm8mVFMvD19IhE4nIkaWT4GO3YWkmSS9A3GkkaIshcLmeYDHK5HCYnJyVzhmRoFtd2jFSLu7q60NzcrPscFhcXWZMOI+RYyvZCs1HqIo5Z0aSW8bPkGom4vBStisIKt9z0RGF+UQ0Z0ETicmJrqeFjpSBJ3WRnAknGYjHNNmlcktRFkOPj4zh58iRmZmYkBx2pxdLSEtbW1qg6JJJnBICuri72BjLS6UKwsLDAVryNkCNQ+vbCYqDURZxiRpNS+yHblqpVUTg9UaqHm5ZfJGSwfdcuTf3bcmJr2vCxUpCknu0Nv47jE6vHS5KQZNXw8PAwqQJPTEzg7bffliW8qakpRKNRHD16FF1dXZiYmDC0JAsGg6irq6MSCzf/SJauRjpdCBYWFtjItKWlRVdRh4sPyuzsUhdxihFNRqNR2f2UulWRTE9U08NNIwM1/dtCmzU5EiHDx2gFIk97u6aumxuBJI0Y7losFlTdfPPNw+fOnYPdbkdXVxfm5+dlSXJiYgJ9fX2oq6uDxWLB4uKirsE6BJOTk2hra6O+npZ/NNqtIiRHo/OuiTSoXO2FxUCpizhmRpNq91PKVkUtPdzC/KIaDSOxWePKevRUmfW0JlYySZrhSl71l3/5l8N79+5ljR3IMBvakpdEb1xSmZ2dRWNjoy6CpO2PC7n8o55ulampKXZWtlnkSKRBzc3NFSvv0YtSFnG0jGbQuh+paFLYqlhscbmwh1tqxKwwv0hI0r1rF+zbtlH3TdNXFqvKLLquG4wktZhpVz377LPD3I1Jop4WnQnzhUoEp4RS5h/9fj9mZ2cBmEuOpMBjdIJipaLURRyp0Qxa89xaolIyKK0Uc3BID7fSiFmayUXouecU+7eFOUYlkhS2J96IJJlNpWRzqEKS1GKTJirSyGkShflCOYJTg1LlH/1+P0u2AwMDhjtdcrkcRkdH2eW/kQLPjQJaEceIa7scaKMZ9LiXS0WTZGokF+T6StGqKBwxK+VSTivCKGkYaTlGvWQlVyCioVwkqabQZLFYsH37ds1ekh8T/iIWi6G+vp66cTwe590QRHumF8L9Cc8DYHJehHxIr6XT6VR9DCE5Gh1IlsvlMDIygmQyierq6g8FORJYrVZ4OTdmMSv2VqsV/f39OHDgAKqrq5FMJnH06FEEAgHN++ru7sZTTz0Fp9OJfD6PkZERjI+PI5fLUY958OBB+P1+6jZmwePxYGhoCLW1tchkMhgZGUEikRBt1zowgKcWF1HNIc+xwUEsXE8/0WDdsgVDc3Nw3nMP+7vkq69ipL0duStXqK8ZHBtDy7e+Jdo+cb1tUi2k9qP1uFLbc1/Hvb7Qc8/BPzAg+xqXy4WhoSH2+zQyMqL4+fIIMp1OI5fLUStsuVyO7W0lkCM4JdD2xwWJHrlkTUhT7TFPnTplKjkC+NCSI8HExAQAwOv18j4Hv9+PU6dOUW9yI/D5fDh+/DhLzBMTE3j66aeRTqc17YfcHLt37wbArJSOHDnCfqe48Hg8OH78ODKZDI4cOWL6NXHP6fDhwyxxHz16FAsLC+LtvF4Mzc2JSFKOEKxbtuBwJKKJ9AbHxrD7scfYn/NraxVNksKHgF6SlANvia3UE51Op03LPwr3x4VU/lGLnCaRSLAFGbPI0e/3IxqNsuRYKu/BSkEgEMD8/Dyqq6vx+OOPs8uTQCCAmZkZpFIp3RMP5UDyoEJRuJ5WRbUDw4RzcIq15FZrdKHH5ALQLh2SKhBpdQIqxXJbrzGG0JVcziaNR5BKPdFWq5VNlhvNPwr3J/ybMP8IFKraakg5HA4jGo1i9+7dePDBB3WdIxfcpfr+/fuxQ8Iy/4OKXC6HU6dOYWNjA729vewNnE6ncfr0aVZwn81mEY/HJVv/jIAIvbnCaz3FIi0Dw1wuF9xuN06fPl3U8RVqjC5oRRi1JKlFOkQrEOlxAqp0kiSKHTkvSR5BKvVENzc3s09RuQKLGgj3J/wbrf86FAqhvr5eFSlfuHABqVSKF4HqxdTUFFsBHxgYKPv0x3Lg9OnTeOutt1BfX8/Te546dQqrq6uor6/H97//fV4Psp4oTwlWq9UUOZBcNCl8aNvtdlYzKWWsagbUGF1ICb2TkQgaOztVtyYqzcfRUyCiXpMJJKk0NlcvSdbV1Ska7rI5yFwuh0wmI7lsFOYbjeQflV5vRv5R6/ZSWFhYwPT0NADzluo3GoiVG8A4KhEEAgHE43FUV1ezUX1raysvrzY6OopTp06ZXuwghRdukWN8fFzzfjweDw4fPizKTQrPl+Su0uk09e9mobW1FQMDA6iurkY8HsfIyIgo30orwkReeEExb9c6MIABv5/9Ob+2htE//mPJgk+Km51hAAAgAElEQVTrwACGfvELTQUiGozmJDOXLyvmQmnviZqcJHm/AWbl6ue8PwAnglTSJCaTSTaaM5p/FO5P+Dcz8o9mmEcIu24q0Qi32CBV+42NDezZs4eNnrlL697eXl7UZVaUpwSz5EAkmuSa8tJmzBC7teXlZUxOTlKlOWZAjdEFiZq487HVLEm1zsehTVlUGhVBg55IEtA2NldvJCl0JbdarWwqhSVIJU1iTU2NqflH7v6EfzMr/8jtwNGKRCKBZ555BgBTsd2/f7+u/dzoOHHiBFZXV1kxPAF3aS3VYkkTfZPfmwUauUk5jiuhrq5O1YwZn89X9OKNGqMLMh+bRjwNnZ2wbtlC3bfUfJzclSto7OwUn4uOURE0aCVJqbG5xSJJ0ssfjUbZfnmWIJV6oj9s+cdUKsXe0KlUCslkEjab7YY2o9AKbtX6wIEDLFFwf3/o0CHZQgyJ8tTMvDYCmuO4ngKO2hkzpSjeqDW6oBFPaGxMlkhopLfy8suSRKK3ii6EVpKkjs0tEkm63W6RlyTr5qPUE82N5i5cuKDboJa2P+HfAH7/dSQSQTQahdfrVRURmmFeSyqd+Xwe6XQab731FkKhEGKxGOx2+weeKBOJBEZHRwEAvb29bPI6kUjA7/dTl9ZSoM281hvlKR1H6Ooj1aWitB810ptSFG9oRhdqSFINkdBGy8oRiZ5RETRUMkkKDXerhoeHh7XkHwGGxMj4A63Qk3/UEhGaaV5rtVrh8/nY5nbiOfhBJ0rhfB7S1knykdlsVnZpLQWzojwlEFcfbhTIzSupgWrpzfWlcDAYxOzsrOoeX60Q3ri0cxFONFRLklpGP+gdFSG6Ho091eUiyarh4eFhLflHOYJTAz35Ry0RoZH8I6l8i6zxr/ccSxFlsQZelQNy83mOHTuGVCqF2tpanlBcC2hRnh4PSCWQpT2JAomvJW0+jByE0ptIJCIiQW7xZmZmpmhGvDQ3ICFJ6tEwah39oHdUhOh6NPZUl4Mkq4aHh4e15B/lCE4NtOYftUaEevOPCwsLGB0dxezsLEKhENLpNGpqakRVTBpRzs/PG3ZWrwTIzefhdhE99thjhiNnmncjraPFCGgdOFJmFXJwuVyiCjdtxozP52ONeLUeQy2EbkC0CFyPhlHr6Ae9oyKE8PX0IHL+vGryKiVJejweVN12223D+Xwevb291I2E+UI5glODiYkJdHd3UxP7tPyj1ohQb/5xdnaW7bHOZrNYWVnB/Pw8lSy5REmKD+RGv1E9IRcWFvDMM89QR1CQVkLA3C4iUhDJ5XKsTIcmrzEKYo5LPiM91XRhhVtqxozb7YbD4cDp06dRU1NTlHZUriyFRMfCqNbl9Ypm0KghSdroh+Czz1IJSG5UhFwVXQit5FUqkrRYLKj63ve+NyyVT5TKP+otfiQSCUQiEaqekJt/tNlsbMW4VPnHiYkJ1jCgo6MDdrsd2WwWqVSKJctIJIL19XU4HA5YLBa2+KCkxq9k5HI5nD17lhXDe71eHDx4kCXHhYUFnDt3DgDY6ZFmg3S0EPuvYvRzk1wht5qudclNk97QSJCQ6blz55BMJovyfXC5XPB6vbL2XVIaRik5D4HWgo+eKjoXesirVCRZ9eMf/3hY6gtCqnfkAzaafySVS9oXhpt/JBKb6elprK2tFT3/mE6nMT09jdraWja6JW7aLS0tsNvtvFxWMBjE+vo6O35AKDS9UUiSVKqj0SgAYM+ePdi3bx/7PguF8lKrDDNgt9tF7uVm93NzH2ikHVLrkptIb8iSPRKJUAtAJAc6MzODV155RXPuUw2Epgu0ir1WOQ+BcFSsVpLUanJRqSQpO9XwwoULaGhoYJ+QRvOPwv1xQfKPfX197Jctk8mwS75i5h9JK53P5xMRG/nyd3R0wOPxIJ1OY3V1FfF4nLcclFPjVyICgQD8fj8ymQyrZ+RGh2bP7lEDkjMsdj836VTRu+QmRRlS6STVcuF3h0h04vF40Yo3hCTl5q5olfMQuHft0lTw0VNF56ISSVKWIM+ePYve3l72CW40/yjcHxfkZjx06BA8Hg9aW1vR3d3N5vrURBF684/T09NIpVLYs2eP7LXZ7Xa0traK3KDJF5Krxl9eXkZTU1PF+UXGYjH4/X7Mz89jY2ODNZngXnc5yJELl8tlimuPHGhLbq3H8Pl87OctZS5Btitm8YZEq1ySFB5HSs6jNM1Qa8HHqBNQpZGkJEHS8oXFzj/SOmXsdrsqkjGSf9RKrGQ5SL6QKysrbP7H7Xaz0Q+Aiqlsp9Np+P1+TE5OslFjb28vb0kNlJ8cCUrRzy3MIZMUCq1CLQW3282LeKWs/ItdvBHOXQmFQiJBud5phlIFH6l+bKNOQJVEkpIEKcwXliL/2NLSojsxrzf/qJdYyRcyGAwik8nw5rP4fD7WQLarq0vztZiJXC6Hn/3sZzhz5gxSqRQAJte4f/9+3nstLNaUkxy5KEU/t7DgIVWhlns9NxcYDAapry928YZ8J0lUTOu60TvNkFbwkevH1lNF511LhZCkJEEGg0E4nU42j1aK/KMapx65/evJPxoRlpOIkUz5I/pIopF866234HQ6izpKVA5TU1M4ffo0W/xqaWnBgQMHRMtAWrFGy1C0YqMU/dzCCrVUD7bc67l5TZq5BPdailW8IUEIt+sG4D9Q9E4z1NqPLVVFBxgjCsVrqQCSlCTITCaDWCyG5uZmNrro6urSTWBq8o9GIha9+UejxhZ2u51dXtlsNvaBks1mEY1GDT1U9CKRSODkyZMIh8NsnnFwcBAdHR2i91+pWFMpKEU/N6lQK/VgS4GQrJK5hLB4U4z2RC5JSrVJ0uQ5UppH9hpl+rFpuUwaqcaDQdX92+UmSUmCdDgcCIVCGBsbw8zMDHw+n+7ldTqdRjAYpMpEtDr10GAk/3jmzBkAMGRnZrVaEQ6Hsb6+zl7D+vo6QqEQW/EsFaampnDmzBlks1lUV1dj//796O3tFT3YFhcXRSQqLNZUIordzy3Vg+3xeFTtn2YuISX78vl8bHtisUhSSX6mR56jNZdJSDI6M4P82hq7/Y1AkpIESW7s7u5udHd3G8qXyA0DK2f+0QxyBphokSTFyX7sdjump6fZ1EGxkcvlcOzYMYTDYQCM4Pvxxx8XRS+kij0zM4N8Po/a2lr09fWhv7+/KCYLxUAp+rmF5KJl2Dx5PVDom5Yi8WKTpFB+Rusl16p5BLTnMm0OB1oGBnQ7AZWLJEVzsYsBNfOvjSTd9e7DrLEM5YZwVveBAwd43TBAoYo9MjLCjknYs2cPjh8/XpFLajXo6OjgzbseHR01dZZ1a2srb0ToE088oWkEbHd3N2vnH4lEJOcwDw4Owul0Fm3EbGtrK2++OO08Og4dEo1jGGlvV5y/rWW0rNRYhCNer+KIV7nXy41VoI2Z0DK+oSQEGYvFePNluCAFhHIQJMkxeVVU1SoViUQCR44c4c3qFkb74+PjePLJJ9kK8O7du3H8+PEPxAgJMluaO1NmZGTENKLxeDwYGhpiSXhkZASLi4uqX9/a2oqnnnqKJScpEhwcHMSePXtMPXcufD6faB608Dg0MlEzg0Zq5oxaklQ7B1vq9cUkyaITZDqdRi6Xo1YDCbFJkacaJBIJ1n1Giyg7l8uxpFIMQwHy5XM6nabvmyCXy2F0dBSZTAa1tbWiWd2EPMlExpaWFhw7dgz9/f0VJ2A3iv7+fh4BHD16FAsLC6bsmwzs4kaqgUBA8+u5A8ZoJNja2oq+vr6ikSQ5DyWSPPDzn2se1DU4Nobdjz3G/ixHQoR8tAzyor1eSJKBEyckX6OXJItOkKSFjwYzlri0CYhqUOzldT6fBwBUV1cXZf8AY7BByPHw4cM8clxYWMDRo0d5y+7BwcEPpMEvAZlQSEAiZjNgtVpx+PBhtLS0AGDee+EEPDmQSJcbiZaLJI8fPy57Hr6eHgzNzYlIckq66Q4A0H/iBJWEFs+fF21r3bJFU+RJe72QJCe+9z1ZItdDkkUnSLnl9Qcl/0jyOdyorNgEvLCwwBLA4OAg79iBQICVTnm9Xhw/fvyGMM8wCuJnCTAPJu6IWrMwODjI7jcUCuHpp59WnfO0Wq2i5boSSZoVBSudh/A4Lq9XRJLTf/7nymNUNY6WNYMktUS7WkmyqASZy+VkI8hy5h/1Rp5qzyGZTAIozhKbzBACGFE397h+v5/9W0tLi6hY80FFLBbDyMiIZLrBTHR0dCjOrpaCFpIcGhrCxMREUUmyvr4e+XweY2NjkiRZe+ed7O9UzZq+TkJqiUvL8lx0HUUmSR5BptNpPP300/D7/VhYWFD9oUthcXERXq+XeoOWM/+YTqeRTCY1dUrIgVbsKWYEGQgEkM/nUV9fzyu0BAIBNqrs6+uriFbBUiCRSODUqVPsd0GYbgCYB8epU6dMW7YKK9xaKtBqIjigkDMsJkk+/vjjbNpgbGxMlFt1eb04HIlQiyJy+cLWgQFNxCW1PFdDkrRo1yyS5BEkuamdTicikQiOHDmCU6dOKZ6gFIot76mE/GM6nWajFpLf00vcapDL5dgvsbAKTX4/MDBgeGDZjYTR0VH2gcF1QidYXFxEKBRipTZmFm+EeUW1FW41ERw5RjFJEmDSBnK5VamiiFJRRStx0UjrqM+nWCDScyyp4wlJkkeQ8Xic7Zg5ePCg4RwOiSBp0ENSgUAAgUCAfVJXwvKamDtwl9LFXF4vLi6yZMC97oWFBZaob1Rdox5wr5uWTsjlcuwNX1tby5LR+Pi4Kce32+2iCrdaIqNFcHIkOT09rakwpAXC3KoaklRTeTZKkkrbGzkW7XhCkhRFkFzSkIsAlaA0FlVr/jGRSGBiYgITExM4evQovvvd71ZEgYakISKRCB555BE8/fTT7DLXDAIWgms8wQU3J/lhQS6XYx9Qe/bsoUbrZJSG0+nE8ePHeXrJI0eOmCIqF1a4x8bGMDU1pfr13AhOjiQPHz6MZDJZNJIkuVWAIclTp07x3h85YbjZJDn0i19olhrpORY5nhRJsgRJ0yvKVaCVsLi4qFi91rJvQgxOp5N9WutZxiYSCXZyohmSFyLwJdcSj8dNKT5JgUbusViMbRv8MEWPxLRY6rq5c47Ijd/f38/rKtHaHSMHLtFpjfbUkCRZlheTJFtbWxW7f2iV5yNer2y+UCtxedrbdUmN9BwLkCZJthdb2C+dTqcRCAR0215NTk6yw6+E0NN/TVx39u7di/7+fnR0dKCxsVG12ziBEXszGqxWq8gBvba2Fj6fz3QXn0QigZmZGTidTp7PZCQSQTQaRUtLS8UY9JYCZBJlX1+fqCiTy+Vw8uRJ5PN57N69m0egxJeRWJPNz8+bNiJD2MOtxUhDaFNGGyVMPB9nZmawvLxctoFgQpOL/NqaYp8zzdlHziPSiBOQ1mMB9N5tNoKMRCKiKqzeCIh0qZhZoBEOECPEpDUKLLY+0ePxoLu7uyhFEinxeTFznpUMUhChkQQ3uqS1VJK8HvnOk+KEGUtuNVGYFAYHB3lpAFqkSCLJdDptWppACFrXDS2S3PODH7A/q6k8a43u9EqN9BwLEEeSLEEKCdFo/lFu+ax1CUpuBDN6pm9kgwopIvwwEiRJK9TX11NXEOQ7JpWbBBii4RYjQ6GQaR0swh5sLfvt7+/n5QKlSPLxxx+H0+nURMBaoIYku4eHVXfPsPvVQZJ6pEZ6jgXwSfJjALN0s1qtvGjMSP5RLvrUk380i9SKKb8pBWgdO0CBIIsljK5EkOKY1ApCy3emo6NDRARaDCmkoKb3WQrcKFSKJIGCE1A5SVJr9wygnbj0So30HIt7TR8DxNEi+RD13nBm6x/NkuWUzL1ndbkou6VFioQoamtri3LMSoVc1KynEOfxeHg9yqOjo5oq0VKg9T6rJd8bkSS1kJAZJKnW5EIvSX4MMFfeA8DU/KOerpdEIoFYLCb6EEu2vH7+SeBHfcCLPzKVLGkRZCaTAfARQXKh94EqlOtMT09r6rWW269eraSQJKXOZ3BwEPX19aZW5blQS5I0EpJz2ZEirtjcHHV7vVIjuWPJkSRLkELZiJHltVwuTGv+UQupEVHw0aNHMTIygsceewxHjhxhWyeLKb9h8VoAuPYe899rs4D/u8B/+zbw0vPA2mrxjvsRWCgtv5UwODjI67U2w8iWppVUa5lGSJLb+00jyf7+/pLbpQnPg0ZCE9/7nmxRhfaaUz09ssUePVIjqWPJkeTHpPKPxSjQ6Mk/ql0WT01N4YknnuCJtMkHSWbrqNmPYcQviX+39g5DkP/t/wD+5v9mSPTq73QfohjLqA8SSIRt5H0ivdbEw9Esf0mltj6l85EjJ7JdJZKkUuWZvIZATUVcSJKZy5dV9W9LkSStsFT11a9+dZg7rzqRSCASieh2m56amkJzczN1Noge/aPStEIyfCoSibDDpw4cOIAHH3wQXV1d8Hq9cLvdsFqtqK6uRltbW/EGU62tAhdHCz9/5l5g7V3g394v/O69K8A/XwIu/Xdm+b3JAtSqqz7Pzs4im80iHA5jenoasVgMsVjsQ9liSN6L3bt3i0a/xmIxNk1kZLVARrRypxxKDeDSAp/Px87TkRqmJXU+3PnbUnNyXC4XampqcObMGbjdbtM9QNWch9z0QykNo83h0DxDhuwrHgyqfg05llAnuTQzI3pd1Re+8IVh7rxqMkpT75dgbGxMksy0zr+Wm1aYTqdx6tQp3vCpwcFB9Pb28m4Ym80Gl8sFn8+H1tbW4k7te20WWPkH5t/Ou4D7u4CdzcAntgJVm4Df/oa//btvAb/6n0D4BebfttuBW26V3H1NTQ3Wrk+Fy+fzyGQyvBzkh4kgX3nlFWQyGTQ3N4u+S2YRJFCYcggUBnBFIhE0NDQYUkK43W7FiYM0aCFJh8OB06dPo6amxnSFg5rzkBq0FTl/XnL+tp5BW572dupr3Lt2wb5tm/Q1CEiSdqyqu+66a5g7r/rChQvgEqYWxGIxJJNJSZG01vnXwWAQ8XgcbW1toi96KBTC/Pw8qqur0dXVhYMHD5Z/ZOnUXzG5R6BAjABg+wTguhv47L3Mv39/DXgvW3jd++vAOytA5EIhh2nbCmy+hbf7uro6tLa2oqOjg+3aqa+vh9PphM/nK//1lxChUAiZTAYtLS1FJUgCj8fDm8kdCoUMR2fCiYN6STIcDqO+vl4USZOOoTNnzlQUScpNPwT0kSTtNaHnnpPtnAEYkqxxOCSPVfWlL31pmLucPnv2LLiEqQWhUAg1NTXUdjc9I1YnJiaQzWbR19cn+vBJ6+H+/fvR3t6u+VxNx+oys2wGAMvHgbavibep2sSQ5t2NwN0NwC01zBJ8/Vphm2vvAYnXgL+bAuK/BDbdxJDlpptEu7Pb7XC5XPB4PB8qcgRKT5AAQzhNTU3srGyS7zZyDKMkGY1GWZJsaGgQ3Sdku0ogyWwqxbYmloIkAeX2QqVjfUyofxQWbLRAjUBc7ZdJaahWxXXE/F3hQ4HrbuXtb7EBn/088CePAHv2MflKy8f527yzArx4AjjRD/zsLxjC/AhlBbE340qBhK43WqFW7yiE2jk3xfaUVFO40TODRs8MmdaBATy1uKjZCUjqWB/jVnWN6h/NFIjLba/UZlYWcKvXn71X22s/sRVo/hLwze8AX3oIuKtBvM0/XwImf1gUfeVH0Aar1cpKgQDt/dY06CVJtSMcKoEkAe0zaPSQpFSVevzQIdlroB3rY2brH6UIS6sGUU7eI2dSUBaQvCEA3FxTyD3qgetu4P5O4BsHgdavALd/iv/3j/SVFQNav/VHJKmOJLXMoDGLJGdPntQ8dOxjwkl8laJ/lIsgzXQENwXc6NFhkmHETZuZXGVnH9D7H4GmdoZ8ueDqK1/8kTnH/QiaoJYU1MJMkqS1NFYKSUrNoJHqoDFCkjSTCzmIzCqAyso/yvXSmj1wyzCu/g54h7Pc/XXU/GOoyVduVfYyTCQSeOSRR4pmkVVKyM0dL3X7ZaWSpFRLY6WQJJX0vvQlTTNrxhQcfeRIUmnoGGtWAZjTfy3VYqiVIOUixIorzmy+BRh8pnTHI/nKP/mP/N/X75J9WS6Xw+goI2I320m7HJBzMDLaaqgHlUSSwpbGG4kkAW0za9T0Yet1AmLNKgBj+Uel6NPM/uuKW14DTAGF4NbbSnPMxBuFf2/dzojMZeD3+9mOG6VcVaXDjJHBxUClkCSgfs5NpZCklspz68AAL4eplyTVvI7nKK636KGmeq2n/1rKKVrqb2UDNwd5N6UCXQy8wVnKNz0ku2kgEGDf0wMHDqhK6FcylAyCS2JKIoGPSJK+f6X3Q6ryLJUv7D9xQrOjjx4nINbNx4iJrJoCjRnu4RVpeLu2yo8gS0GQv1sDVt8q/Pxp6eU1mQYJgJ3dQkvo30g5SbXfKZrlXSnwEUnS96+HJOWKKlKSISXbM9rrnti2jVrwofpBaoWZBRq57UtmeKsF3OjReRdTfS42uMvrT+8StSRyQYoZAL+gISTJU6dOFeVUiwG57wj3xhNa3nFnqhcbH5Ekff9qSFJqvAINZpGkVFW8anh4eFjOgUcJSu4/WvuvJycnkc1m8fDDD4vapuRaD8uGi6cYhx6A339dTPwyAFy9/uW670+A26Ur2Ha7nTcpj1v9t1gs2L59O8LhMFZXV02b7FdMyBmYAMw1kcmSAEOY5Pqj0Sjm5+cRCASQSqUAMK1yaiYO6oFaYwm10NuWCIgnJtJUIJXQlggwS2GayUVsbg6+nh5Ra6JwwqJSGyP3ddYtWxC9eBEAvZ2xanh4eFjOgUcJcu4/Wvuv0+k0JicnUVtbi97eXt7fcrkcJiYmUF1drXsUrelYWwWCzzH/luq/NhOREPNfmrm58fGbgYf+TPFlcjcHIYhoNIrl5WU0NTVVTvqCggsXLmBlZQVdXV2SZG6329lRvFzLu9raWmxsbLDvRTgcxszMDJLJJNbX14siG/uIJPlQ+37QTC4yly9LEp9eknTv2kXtw3bs2IG6HTtQ9Y1vfGNYzoFHCXLuP1r9HxcXF9likfBDX1paQjgcRmNjI2s/VXa89Dzwr8xyD9t3qOvB1otXfgEshfkuQJ/9IlB/n6qXC28Or9fLRuFutxuxWAyrq6tIJpMVbZt29uxZ5PN57N27VzWRE8s7Mke9o6MDjusRwtraGt566y1EIhEEAgGsra3B4XCY+pAgpDA/P49sNstGuXrxYSPJ1OuvI3U9rSJHfHpJkmpWMTGB2m3bUPXAAw8MSznwqIGc+49W/8fp6WmkUins2bNHtNwnT/rOzs7KEIgDzPKatBh6Wxgrs2Lg91eBX1AGSN3/TdVmuwBzcySTSaRSKaysrKCtrY39m8fjQSgUquil9uLiIubn5+H1eiUdnBKJBFKpFOuVSf6zWq3sDWixWOByudDc3Iyuri44nU5YLBasrKxgZWUFs7OzbJ7TrO9aOBxGNMooD9TeD3L4MJFkc38/lfgaOjth3bKFf20GSTI2N8ca6EZeeAFV995773Cl5B/l3MMnJiaQz+fR19dXGUtAYkkGMC2A9z1QvGOtvA4kf83827UT2P0IQ4y+BzXvqrGxEcFgkO02IZEMIZBKXmpPTk4ilUrh4Ycfpn5f/X4/zp07h1AoJPqPu5S22+2871ddXR18Ph86Ojpgs9mQSqV4UeX6+jpLonqwsLCAc+fOAWCUBGatgD4sJAnQiS80Nka1P6Ntm3r9dTQrpOZcXq/IZbzqzjvvHK6E/GMsFsP8/Dzq6+tF0UEikcDMzAycTie6uro0n2dR8NLzjB0ZwEh77thexGPNFIoy938T+GwbQ5Q6YLFY4HA4EA6HEY/Hb5ildiwWY/PT+/btE/09kUiwJFRfX4/a2lref7lcjiW9mZkZNqrkRnIWiwVutxsdHR3weDxIp///9r44uI37OvNTJVgCpAh1gMhkk+VFlA3kbCoHJiZrgx7TOaJTMwlpn50OdTn5Kvkc5U7KRcqMdI2njYdV27Pu4kmkzEidSNNQ7dmOmKuVhhxXzBw4ZzIh5DNcAx0JcQArRArwWkAF7BAnLiQDDu+P1e+H3cUusLvYBbDkfjMYQSS4WILYD+99773v5ZDNZpFIJBAOh8GyLFwul6oPjoWFBRoo+P3+Km29UaxnkqzlESl+bCYer7nugZ6PyGV842OPPTbeDvpjrceT9KSvr0+zFKA7Xj3JOYEDwIMBwL7VmOe5sQy89dPK/z93RNI8Vw06OztNl2qTSSBCXmKcPXuWGugeOnQIAwMDghs/lc7lckgmkzS6BICOjg7BRel2uzEwMACv10tfq0QigdnZWUlyFSOXy2FiYgIzMzMAOHIUZ1Isy+Ls2bNUW7cKN8pIUqmRbu/jjyP+2mvI/8M/AKi/E4eeD48kN375y18ebwf9sVYLzyuvvIJ8Po8nn3yyqfO1skhcBq7Ocve3bgc+/bBxz3UtBvzjL7n79zwAfFLbh5kYSlLtWCwmiDBbhXg8junpadjtdhw4cKDqwllYWMDs7CzsdjuOHDkiSzQklR4eHhZElbFYTDaqdLvdGBwchM/nQ7lcRjqdppsyQ6EQ/T9ZoBaPxxEMBvHSSy/RVqKRkZGqzotUKoUXXngByWQSmUzGqm6rIEmposr8d78r6Rze+/jjqhaH0fPp6EDfnj3Y+Id/+IfjrdYf67XwqNUyDcdrf8kt2QIA34PAR37LuOfi9zw+8vuqijK1UC/V5keYjVy4euCFF15AsVjE8PBwVQbBsixOnTqFcrmMJ598UnF1uKurCwMDA7SBmvyuhPjsdrtAq3Q6nVSntNlstPiTTqeRSCQEt0wmA5fLhUAggP3791cR1cLCAs6dO4dCoUD7Na0WoMZIEpBeryC3OEwJSTp+8zex8Vvf+tZ4q/XHN954A9FoFP39/VXHi0QiCIfD8Pl87dHec/MG8LcnK/9/MAKOk1IAACAASURBVGDc9My714G/v71mYfNW4PNf0/Xw/FQ7k8kI/lb8CLNUKrVM2ggGgwiHw3Rrpfi9+sorryCRSIBhGE0foA6HAz09PVVRJV+r5I+2khadQCAAv98PhmHAMAzdf0O+99RTT8Hr9VZlVxMTE5ienqYrio8dOwafz2f1SYqOr5QkvY88gsjf/I2g8qwnSW78sz/7s3Etv4ie+uPs7CzS6TSGhoaqjjc3N0d1srbQw96er8xe3/UxzqfRKFx5A8j9E3dfRc+jGhAizN5+45C/FylYhEIhJJPJlvhvxuNxnDt3DgBX/d21a5fg+6lUimYXBw4c0KV1ZmBgoCqdJrqj2APA4XDQpWn8m1RGtrCwgDNnzlAjjZGRETz99NOw2WxWM7kIal4P98c/XlV51pMkN46Pj49r+SX01h/lWni0NAYbitlznJM3wKXXRo4WXg5WNh4GDtS1NNMCm82G7du3IxqNUlcm8jdzu91gWRbJZFL2YjEKqVSKps5+v19Syjl16hQKhQL8fr/mQQcpkHTa7/ejWCwKiDKdTsNmsylqi0ulUrh06RJefPFFXL58WbC/XdypYZGkEGpeD3HlGdCPJDURpJ76Y60Wnlwuh+npabhcLtnnaiqWsxxBEjz0KLfK1Qhk0sDbb3H3nTs4gjQIXV1d9IKIRCIYHBykb8Senp66F4veIAUM4twkVZiZmppCOByuW5hpBA6HQ0CUuVwOS0tLCIfDCIVCiEQidP0sv0gzNTWF6elpzMzMIJlM0t/jiSeewNNPPy1LrhZJCtEOJKmJIPXUH2u18IRCIcRiMfj9/vZo77kyCyRvkxazi9sZYxSil4H3/pm7v3sI6DYwlQeXWpMdy5lMRqD3ii8WlmUN+3uIyfHo0aNVmUMqlaKp94EDBwwnbEKUpFWoVCohmUzSQo24SJPP5+n5Dw8PY+/evRgeHlZ0nhZJCtFqktREkHrqj7VaeC5duoRMJoPh4WFNkz66Y+q/V0YLP/2wcaOFANcc/usPuPu/ewjYdqdxz4WKs8/8/Dwd1eNfSL29vTTdJuSgt2mxEnIEKqm1z+drembR2dmJ/v5++P1+Gl26XC6BBjk6OoqRkRFqqKFWGrJIUohmkiQAeHnyhyaCPHfunGRFEVCvP9ZKx2uNHjYd2UXg9b/m7ts2c+m1UUhdqyz/cu4AHtln3HPx4HQ6a15IPT09gu9Ho1HdWoBI60s9cpyYmEAsFoPdbsexY8da9r4g/ZLEOYh/c7vdDevlFkkK0SySTMzNCR6nmiDj8Thquf+o0R9rtfDUGj1sCV7/n81z7rnyRiW9fuiLwEc/YdxziVDvQurq6gLDMLh69Sp9o953330NEQIZxyOtL0eOHJElRzL50ozUutWwSFIII0kyfOECisvLVY9TTZChUAhy7j9q9cdaLTzBYBDJZBKBQKA92nv4zj0PPWrcaOH7N4H5Vyv/f/RQTcdwIyC+kMSRYmdnp+CNGgqFcN9992mauBHPKh86dEjyDR8MBunY3r59+9qjJ7YJsEhSCKNI0vPII5KP+42qo9aBnusVaq1QaKvthYnLldaerduNbe1Rua3QKAwMDODgwYMCi3yyThXgLrTnnntOsNeG/P2VIhgMCshRLutYWFgQ7NVpJxONZsBa3yB9fCWvh9wysPhrryl6nGqCVLLBUAlB5nI5uoZUrFWyLIt0Og273d4eaRR/KZeRqTUgJMg62wqNRm9vr+CNePz4ccFOF7fbXbX868KFC4qOPTExQUmvHjnySVTPfkczwSJJ6eNrJcnTjz9etX9G6nGqUmy99Uc593CbzYZQKESbgFvaIH7zBvDjMxXnnsHPGTdaeGMZeH228n8dnHsahdPpRF9fH21fCYfD6O7uph9qNpsNfX19tPWFNJXX0iX5WuLY2JisBZiYHNtmFr9FsNJtIbSk2/Pf/S4AeRegKrszNQSpp/5Yyz0cALWkyufzmloldMPb88DbP+Hu3/kRYPdvG/dcBjn3NAqHw4G+vj7aJxkKhcCyLLq7u2Gz2WCz2dDT0yMo3oRCIXR0dFT9bfnkuG/fPtkCnEWO0hCTQqFQaKjdar2RpBKrNIHdmRqCrLX9UG3/Y70WHhJFZjIZzM7OIhqNYtOmTVVu0Ibjpy9XnHt29zfPuafOtsJmQypSjMVi6OjooNFkZ2dnVbTJbyoXk6PcB6lFjrXhdDrpnLxaUpOCniQp5SHaTiQpuX+mBkmqIsjzNbYfqul/VNLC43a74ff74Xa7qdtMNBrF3NwcMplMXcNSXdBM5x6+Me7mrVxzeIvTazFIpOj1ehGJRCSjSYfDgcHBQUFTeTQaxeLiokWOOsLtdmsmNSnoRZIkyxD/rFlJUjFBKtUfx8bG6kZ4SqNN8mkUCASow4rYtw+AcW1AkUvC0UJvdbVdN/zsLSB7O1K992FurUKbgpjI8qPJcDgMhmHoh5Y45U6n0wAsctQTjZCa3sfr7e2Fw+FALBaT/VkzkqRigqylP7IsS3vUlDQO13IPlwNxWBkcHERHR4fADdqwcbMfnwZWfsXd391vbHvPT2cqzj0qtxW2AvxoMh6P02gynU7T9QH8lLtQKFjkaACMJkk1azfI7vFa52I2klRMkLX0R5vNJjD9rNU4XM89vB7Iyk6GYTA/Pw+GYQQ7VXTDchaY+8vbT7qZS6+Ncu559zq38xowxBjXSBApxGazUTftubk5WqAhKffo6KjsxWCRY2MwgiRJNBiLxVQ5OCk5FzOQZN+ePZyjuFKCrKU/kpMSC/RSv3wt93A1IC5APT09upsmAOBWuqaucPd3foK7GQW+MW7vsOHOPXqDuGz7fD7aeSAu0MjBIkd9oDdJdnd3a7a5WwskmXjtNW4njRKCrKc/EpB2kMXFRWSzWTopw9cZiemo3+9vSDt84403kEwm6cIkQL8l7wCAV79dGS30+Y117pl7tanOPUbB6XRSRyDy/1ojgRY56gu9SVJJG08j59LOJFnIZhGbmVFGkLX0RzFsNhsGBgYEC434L8709DQKhQKtdrlcLk0zvB0dHXA4HEin05SMSUW1kSXvANaFc48RIHZl5XIZDMPIzlUDFjkaBYskhVBLkvxd2oVsVhlB1tIf5dDb2ytpeODxeAT7Pubn5xGPx+FwOFQd3+FwwOv10mVLxOg1kUjQViDxDhHFmDsPXE9y973/CvjoTvXHUAq+c08TjHGNglIvR8AiR6NhkaQQavdu80lSEUHW0x/lIGWNNTo6So1G+REgsbEXr9tU+jyDg4Pwer20uk12iGghX7x6sjJa+GDAOOceQGiM+9h/abpzjx6wyLH9YJGkEFpJsi5BKtUf5dDZ2Um7/kulEt07QyJA0rZDXjjSDF4qlVSnym63m7o9A9yuY9Xkm7gMXL09D711O+ccbhSuXQV+edsBZ8dO4MHfM+65DALLsjh+/LhFjm0IiySF0EKSdQlSjf4oh3g8Llu5Jm07gUAADMNgeXkZ2WwWiUSCVkfVguw6liPf5eVlqmFW4fW/rqTX934K6DCwHzEaAgrvcfcf+L2mGuPqhZMnTyKbzdYlx2AwiJdeegmARY7NhEWSQqglyboEqUV/FOP8+fO0UbhWQaazsxMDAwN0mb3f72/oBZIj32QySavpTqezMrJ48wYw9c3KAR561LjRQqDlxriNYmpqCpcvX4bdbsfBgwdlRz8XFhYoOQ4NDeGpp55q5mmue1gkKYQakqxLkFr1R4JUKoXp6WkwDKN44oUYWcjtvdECQr7iFZ6hUIgaYXSt/FLo/XhjGfigbNwEzd9f5v7dvBVYeY8zpzAJSUYiEUp6e/fuxe7duyUfl0ql8J3vfAcAFzla5NgaiImp0c2U64UkaxJko/ojwG0mTCaTdMNbPaRSKczOzoJhGEPMUckKT7L7mVS/o9EoguErKK1ugGvTB3BsXOXS3/QvuDnp5XeBOzYD29S3JMkikwZWClxB6HqSGzFsM4MKOZw6dQrFYhF+v1/2g4/f9uPz+XDggHG7vS3UB5+YkslkwzvO1wNJ1iRIPfTHs2fPolwuSy5/l8Lc3BwSiQStShsFom8GAgG4XC6wLIts7l0kbm7G7PJW5Msb4dr0AZybfs1Vmd/7Z65f8VoMuFHgGscbTb/fv9WW/o/1sLCwgMuXL8PlcuHYsWOSjxEXb2r1RFpoHrq6uqjTklpSk8JaJ8maBNmo/hiJRHD5MpdGzs3NYXFxEZlMBgBk9SotRhaNoqurCwMDA9QxKJ1OI/2+DfOFrYgXuYiua3OZe3DpFjcW+PZbXJP3B2WOLLXMabex/2MtnDlzBsViEWNjY7Jv2LNnz2Jpaalu8cZC89HT06OZ1KSwlkmyJkE2qj86nU4UCgUAEDRyh0IhTE9PUxcYlmXhdDpRKpUaMrJoFMQxSNCjeXMVUXYLQv/PDgDosJVhI5t8brJcBHg1zBlOqNEr+f6PQFusV1ACfvT49NNPSz4mHo/j4sWLAIDDhw8b79tpQTUaITW9j9fOJClLkHrojzabjep9ZH1rx20boXw+j3w+j0QigXA4jJmZGYTDYRSLxYaNLAAu+n3hhReqK9UKIJ7SSafTyK/cQqy4BTO/2iZMvwnU6pVtul6hHpREj6RpfGRkZN2sZzUjjCZJr9er+LprV5KUJUg99Ec+iD+g1+vFwMAARkdH4fV64XK54HA4sLy8TKNNuT01akBS9UwmI6xUq3xRSZsQ0UP56Xd0ZQs2bVitpN+Acr2Sn14/8vtt7/8IKIsep6am6MWmZxeCBWNgJElGIhFV+9LbkSRlCVKP/sd6cLvd8Hq96O/vx/DwMHw+H/r7+xsmZb7n5PDwsKBSrdXQwu12C9LvfD6PzI1biLJbEFzeiuUPNqLjQ5vhWL1V+SE5vbK4IlyvYBL/x3rRYy6Xw5kzZwBwmy3bYmWvhbrQmyS9Xi81owmHw6YmSUmCZFkWL730UkP6o9YT00Ov4ntO7tmzh1aq9TC0IOm3uPqdvHUHZvN3IL3lo7DZt6LzQ5srdmmAUK9MXau4h9/7MOB5sOHf2WgoiR4nJyeRTqfh8/mMc3m3YAj0JEmy4G0tkKQkQV69ehXLy8uyC7XaHWRKZmhoiL5wtQwttOiU5JhVzefvrSCc/zVC738E2LETHR/rgo19r2J+AVTIETDFegWAI798Pl8zeiRz1ocPH7aq1iaEmUmSv6tdLzidTmmCnJubo3qhGTE5OUlTQfGFyje0kJ2oUfmm4Def82e/Y5llzPziV8gzfXB5fNybg6yQBUyTXudyOfzgBz+A3W7Hl7/8ZcnHnD59Gvl8Hn6/X9FedAvtCTOSZEdHB1588UVDBkskCfLixYsYHBw0ZXtGKpXCzMwMGIahzkFSqDVRo1Wn5M9+C4o6/5TF/M/TiN7ajk29j6Kr535utPBf7DZFek1S58HBQUl9OB6PY3p6Gna7HQcOHLCiR5PDbCTZ2dmJYDAIj8eje+90FUGSAodZ3VaWl5cxPz+PUqmEvr6+uhereKJGSqfU4nouWdTJZBD9+TsI/iyN5e4BdDz8b9qeTFiWpbPxcuQ3MTGBfD6P4eFhY/YDWWg6zEaSkUgEu3bt0j2oqyJIoj+aNU1yOp2IRqO0x1LOpUMKcjolcT0nj1EDyaKOyFGItEC1I+bm5hCNRuHz+SQ1aXH0aLX1rB2YiSRDoZCqvkulqCJIs+uPAHDfffchFAohn89jcXERXq9XVaTG1ynFe2+CwSBKpRLt31QDyaLO0hI19GVZVtNxjcTZs2dRLBaxd+9eyTcfP3rUq2fWQvvALCQ5OTmJ4eFh3a+dKoI0s/5I4HA4aB9TNpulqxcAqFrnIJ6oIdFfIpFoqPpN9M/h4WEwDINSqYRkMik4bjtElfzWHqnRTyt6XB9oZEJGDCNIkmVZFAoF/M7v/I6mc6oFAUGaXX/kg7QA2Gw2FAoFLC0tIRqNYmZmBvl8HgBUEZDY0IJf/Q6FQgC4TYtqSaKzs1MQrebzeSSTSYTDYQSDwdru5wajXmO4FT2uHzQyISOG3iQZj8cxPDxsyGCCgCDNrj+K4XQ60dPTI6gq53I5AQERdyGlZEkMLQYHB+F0OpHJZOjcZiNFHb5WSaLKpaUlqlUasvu7Buo1hlvR4/pDIxMyYuhJkuVyGYFAwJCsV0CQWvRHlmVx6dIlAPIWZu0AUlUm6TIAWoTRQpY2mw3d3d2UfPUq6pDn7+/vRyAQoCRMImASVW7fvt0wOziWZXHu3DkrerQgQKOkpvfxurq6qCOY3+83niC16I9zc3O4ePEiQqEQ4vE4GIZpmo+jVnR1dVECIu5CYrJUQ0JGFXXEJAwAyWQSyWQS8/PztLFd7ZrcenjllVcQi8Ws6NFCFdqNJEkx1nCC1Ko/Xrp0iUZe+Xwe8/PzyOfz8Hq9bX/hkMZuKbIkJBQKhZDL5RSRpVFFHaASAZOoslAoUNG8kdRejHg8TnfNHDp0yKpcW6hCM0iSDHDUw+TkJMrlMsbGxgzhG0qQWvVH0kT8/PPPo1gscpMj6bTm3datgpgsCQllMhlNZKmkqLN9+3bNUeXg4CA9Nv8co9EoSqWSpmOzLEt3zQwNDVl9jxZkYQRJlkolxGIxlMtl9PT0KAokiDHzk08+qel564ESpBb9kb9gi0xR+Hw+ZDIZGjmFw2HY7XZTWV/xSYiE7mKyVEpE4qIOOU4sFmu4pYd/7I6ODlpl5B+7VCopfu1PnjyJpaUluFwuWfIjZrhW9GhBT5KMRCLU7MTv9yueq56engYAw9yjKEFq0R/D4TC1JicXi9PpxMDAALxeLxVQo9Eo4vE43G53WxdypOBwOCTJkk9ESshSTLoAUCgUdGnpIdEviSpJaxNZzEQKULVS8AsXLuDNN9+E3W6XXZPAr2xbZrgWAP1IMhwOI5FIwG6348iRI4reW/F4HKFQCB6Px7DOm43j4+PjWvRHlmUxNTVFtShxBOR2uxEIBOBwOLC4uIhsNotQKIR0Oo3u7u62mhZRCj5Z8omIHxEqIUuHw0Hbj6RaehopvvBbm4i8kUwmaXVdKr1fWFjAD3/4QwDyO67Fle1du3apOi8Laxd6kKTdbqcrV+R2VIuRz+cRCoXgcrmMJUg1+iNp6zl79iyy2SwA1DTWJYRis9mQSCSQyWRoWt7qSZFGwCciObIkKW4topNq6SGuQqT44nA4NEXenZ2dtLBDUnDx+RUKBVy8eBHlchlDQ0P47Gc/K3msepVtC+sbjZKkeNXB4uJiXT6Kx+N0sscok5SN4+Pj40r0Rz4xEiHV4/Fg//79dYmOOOb4/X4kEgkUCgV0d3eju9sca07rQY4sSYo7MzNTlyz5LT3i4osehR2SgovTe/7fUs7rUUll24IFPUkym81KuvbwEY1GkUgk4PP5DPOO2Dg+Pj5eS3+sRYyjo6OqtwVeunSJmh+YMc2uB6kUl1SwxWQpVzwRF19IE7oehR1xem+z2WoWZZRUti1YINCDJLdv317T2owgHo8jkUjA6/UaRpAbVlZWVg8fPoxz585JPuD48eNIp9MAAI/HQ7cRakE8HscLL7wAhmHw3HPPaT5pMyISiSAajSISiaBYLALgdBdS+a+XIuRyOQSDQWrlRn6eVPyMiuomJiaozvPcc8+tyQ81C/qDZVm6dtlut+Po0aOqOlkWFhZoVXvfvn2S6fbp06cRjUZx8OBB41LsL3zhC+Ny+iN/O+CRI0dUR4x8pFIpnDp1CuVyGcPDw2smvVYKogcSBx9+8UTJqKOSwk6pVNJkmFELZEuh2+2G3W7XfWrHwtpEo5Gk2+2mRRuv1yvJF3Nzc8jn84a6j2185JFHxuX0x6tXryIcDqOnp6fm+oJ6YFkWZ86cQT6fB8MwhnW9mwXi4gkgPRcuV5yRK+zEYjGawutpl8ZfR6FET7VgAagmyVgspri/8ezZs0gmk3C5XJJFYLJahRQXjRpv3vjJT35yXI6B5+bmkEwmMTg42FDEd/LkSSSTSdjtditN46HWqGM6nabFGbnpHXFhx2azUWMLLTPlUiAOQ3w3JLGe2g7elRbaE8vLywiHwygUCgCgKNAKBoOYnZ0FABw9erSKm1KpFB1YYBjG0BXDG+++++5xuf7HixcvolAo4IknntB8gU1MTCAajVIdwqqASkOKLElxRsmoIykO8U14+T/baArOd0MSF5+0WsdZWPtIp9OYmZkBwJFjvfpFKpXCxMQEna8Wa4ticjx69KihWczGPXv2jNfTH6XcpJUgEonQWUm5BmQL1SBkSdYzSI061lrRIE7B+ZM/ekR9Yj2VkLFSicDC+oHD4aDvv0QiUXNlA1+K83g8eOqppwTflyJHo7PRjV/5ylfG6+mP/f39qg9MqljlchkjIyOG2KGvB8iNOpLNi7Wmd8TGFkak4HwyVisRWFj7sNlsivfaLC4u0mhzZGRE8JhWkCMAbPj5z3++KkWQFy5cwOzsLMbGxjQt5P7mN7+JRCLR0paeVCpFe6n4SKfTYFmW/t/r9YJhGDAMY5qIJ5fLUQLi/34Mw8Dv98Pn88n+LpFIBKFQCNFotOrniKdlI2BZlj5HIpGgX3e5XPD5fPD7/aYyL7GgD0jLGCDdupPL5XDmzBnaVujz+cAwDABOl2w2OQLAhtXV1VWpb5D+x2984xuq38zBYJCm52r7nxoB6TXM5XKCC1MN7HY7GIYxFWmmUilKeGKyHBoaQm9vr+QbimVZSrLkTQmAkpgevWW5XA7RaLTqOZQQuYW1h3okCQBTU1PUpYePZpMjIEOQLMvi8OHDsNvt+M53vqPqgPxQWGv0qQa5XA7T09OCBmwCQnBkxQL/6/wXOR6PUx9LcbQJcKTp9XppQ3c7V+HlyNLn89U8f/JzoVBI0MhOoko9PuQssrQACElSLgBLpVKCDAcANb9pJiQJMhKJ4MyZM/D5fDh06JCqA5LI0+Px4NixY7qdKB9yKRwhAbfbrXnah2VZuilNjjTrkU27gPh1ij886p2/VAqud3osR+Qej4dGr+382lpoDIQnjh49atiYoB6QJEit+iMJje12O06cOGHIGzwej1PLf4C7cEdGRgy9oFiWpc4hcmTT7psgpUYdAdDITSqdlkvBm0WWZvkgsqAOuVwOx48fR7FYxPPPP9/WWYMkQWrRH1OpFP7kT/4EAAyZjST+k6SBlJi2tuLTR45szHJBa5kLl0uPXS4XTcP1eKMTE1Sp11YvXdRCa9GMLFMvVBGkVv2R/NJa0vJ64OuaADA0NITR0dG2ICFCNkRTITDLBb2wsIBoNCpIp7WSpd5aYqMGHxbaC6ReEAqF6FRdO0ePgARBatEfiUuPEY4v4v6nsbGxttUsal3QQ0NDbd3aQnRdMVnWS6cbaTdSAyld1CyvbbuCr+WThXuAvgGI3IepkQ48eqKKILXoj6QqNTIyoutc5MLCAiYnJ1vS/9Qo5AodZG66nT85tZJlrXYjvXss1Z6bBQ5yr58YLpcLBw8e1PRa1pJjzPY3qiJILfrjV7/6VRSLRZw6dUo3AuP7wXk8Hhw6dMg05MgHeUMSo1sCs1Rrtb7Zm1F4kXttzXghGo1a2Y3f76ebR8VFUKVBz1oiRYB7b01MTAgJUov+2EhLUL1jAlyVVc0ysXaGlOktULuS3E7Qqj1K9VgC+pLlWrtA9YBUm5cSDZeQA4kwGYbBwYMHq/62Zn7NSTufuCca4PhnYmICxWJRSJBayE5vV1+WZfH1r38dxWJxTZGjGFLVWjO8sQi0kmUzOgDWc0O6npE7nyjsdjtGR0fh8/lMS4oEcm7nUh8MAoJUqz82MnEjB3IO62ktg1Ql2UwXs1btsRlV6vVAlrV+x1qjpkqPPTExITm6ayZSJBB3xBD4/X7B+5BICwKCVKs/kpnroaEhzZZofPCjRy0z4GaH3BvdLM3ogPYIphlkWY/IzUSWcvqrUb8LudbNSIoE4qLv2NgYlbwIPB4PxsbG6O9GCVJLNKh3ek0mcczQQGo0pC5mvqjerq1OfGjRHuWqrM0ky0ajLqNgVfC1g2SmQHXR98KFC0in0/D7/VVBCCVItfqj3uk1P3ps9/nMZkOqGV3vCRajUU97lDNtliNLPU002n3UUervr2cPKP91djgcGBkZMcV7SgnEuqLabJcSpFr9kbTh6FVIsaLH+pAz6WjnqEcKWtLpZkVPWg0+9IZUEU/vKFpK+ybw+/2mJ8pUKoXz589TCULOXq0WKEGq1R/1Tq9JL6UVPSqD3ASLWUYcCWpFR6020Wj2zH29SFYPDbreh5P4b2FWoozH4zh9+jStwGv1pd2wurq6qjZd1ju9JqOK66lyrSfk+t30TEONRj3tUS6VrNWLp+fUklFFJHL+wWDQMNs3OS1Yrv+WPzPNf6xZiJIUlIDGTXY3rK6urqrVH41Kr/UeVVyPMPOII0Ejc+FmMNGQi4D1PE+5oQQ10a+YKM0gf/HNeP1+P8bGxhr6gNmwurq6qlZ/1Du9JvtrrPRaP8hdhGYZcSTQOk4oRxB6kpCains90g8EArqQYq0PCC2z8HzvxnYOYPjN3wB022awYXV1dVWt/vj1r38d+XxeN7PLL33pSwCAc+fONXwsC9WQIgsz2oZp9aRshnt5LbJkGEZQVNNT/qi1IE2PrKEdlu8pAeEwu92O/fv36/ae3rCysrKqRk/M5XJ49tln4XK5cOLEiYZPgOiPZgjf1wJqjTjqEcU0C43OhTfDRINPls2oQOtdpOJvCGhn70a+3aJWByI5bHjrrbdWLf1x/UEu4tHTmqxZ0OpJWcu9XE+yTKfTukhH9Rx59JSn+BsCtLTHNBMCu8WdDmBHN3BXty7H3vD9739/VY3+SE5GrxfN0h9bD7lKqplGHAm0ptNadvY0A2or0HqAZVkcP34c+XzekA0BeoJktABw6r/9Vzgm/iOwbTvw6w3A/Y8BngcA512aj7/hj//4j1ct/dECgdz6VzM6d7fzXHgtHImGngAAELBJREFU6FGB1gp+scOIDQF6g2Sgfr8f++9ngJ//L+ChR4Eby8DP3gJS14Dfupcjyt3qizYbnnnmmVVLf7QghbUw4kigNZ3WsrNHC4yoQKuFnA1Yu6LK3Cb8V8DH7gK67hY+MHWNuy39kiPK+x9TnIJveOaZZ1ZbpT9qXS9robmo5RxjphFHAq0rcPWeCze6Aq32XMxEjkCFjzweD44d+PfAX30N+MKX5H/g/ZscUf7sLcUp+IZnnnlmtVX6o5b1DhZaC7mCSKu1Oq1oxVx4MyrQasD3SDQLOQIVue/gwYPoLaeAf/w7oP8zyn5YYQq+4Zlnnllthf5ohNmuheZiLYw48qElnVY6F97MCrQaBINBTE1NUY/Effv2meLvxm/tOXHiBPC9/wz89kPAh3eoP1iNFHzDH/zBH6wq0RP11h+N2GVjoXWQi4rMNOJIoPeooxjtEG2nUilMTk7S1N5si/HINN/Y2BgCfbvrp9dKIJGCb/je9763qkRPtPRHC0ogF1G1i7eiWuhFlu3y+5MKOTGPJbtmzHQNkmDNbrfjxIkTcIReBDYUgHs/rd+T3E7BN3k8HkWP53/S6AG9j2ehPeBwOBAIBBAIBATtKuQ2OTnZ8rRSDRwOBwYGBjAwMFBFerOzs5idnZWcRHK73fR1aAdImZjoYebQCkxPTwNA5cPmndeBgM5DJtucQP9nsEnpmzQejwOALm9qMl1AdvFaaAGyi7pNG8jB7XZjz5492LNnj0CDIxGm2UYc+aQnR5bttN9GSvckbVqBQMB0xAhUInqAW6yF7CLwG6scoRkAwdKuWielZ0HF0h9bjOwiMPFVwLkDuOcBoO+xhqYN1KCWK7rZRhwJ6k0iNSutzuVyiMfjSCQSkv2eZjJSlgPxeqTcETyrf3rNgyKC1JvQLP2xxQieBd6cEn5tx06uzWH3ELBlW1NOoxaxmPVilpve8fv98Hg8upIlnxDj8bjg+QDz6r61QDpp6Gjyt8eAJ/YBd2wx5PkUEaTehKb3uKIFlfjzp4Hl69z9HTu5+7dWKt9/6IvcrYlYSyOOBHIN6SRaZhgGgDLZKh6PU2kqn89LEqLL5YLX69WdiNsFJFCjnTSJy0D4AvCvHzfsOTcpeZCeBZVcLod8Pg+Xy2WRYytw8wbwua9x6fUrf8qR45N/BCxngcTrwJatXBRJkLrC/YznQUNPq6urC11dXVSvJFEYX68024hjb28vent7sX//fiwsLNDUN51O05UAjYBPiF6v1zSvi1YEg0EAt7VHgCvOiMcKdUbdCFJv/VHvdiELDeDmDeDlZzmS/OLz8kWbV/4UuL7I6ZW7A4YXdwjkRhzN5oouBomWye/E12Ll4PF44HA4wDAMJca1Toh8EPs12trzG78G/uIg8Pl/a1h6DSiIIPWsXgNWe09bYcs2jhhffpa7yZFk4EvAn/8HTrd8c6qiVzZoJVUP4hYbEk0mEgkkEgn6Qdvqpmu1INGyBeUgfZu0+n4lCOzoNJQcAWDj+Pj4eK0HzM3NIZlMYnBwEN3djUcOk5OTKBaLpuy/WpPYdAfwLx/m0pU3p4DuTwPb7hQ+Zss2LnpceQ94dwlY+RWQfIt7fHYR+OB9LmXfdIdhp+lwOOD1ehEIBOiHdS6XQzKZRDgcRigUQi6Xw/bt2+F0GtPyYaE1YFmW2iHu37+f442fvgwwXYDzw4Y+d12CvHjxIgqFAp544omG33hkS5rL5bLcw1uBV7/NkZ046lNCktvuBO59mNMqryeBzVuBD0ocYb7zOpBf4r7fBLjdbvT29mJ4eBgulwsAkEwmkUwmMT8/j2g0ilKphO3bt1sfwmsAly5dQiKRgN/v50xybt4A/vYkMPh5w5+7JkGyLIvJyUnY7Xbs2bOn4ScjVT0iXltoIpazwKsnuaLL7qHqaE8JSQJcsWY5C/xjHBj6UoU0P9k8bZKPrq4u9Pf30+JNoVBAOp1GLBaj2mWpVLJSWpMilUrhxRdfRLlcxtjYGKe75pe4bOYnU0BxBbBv5W4GoCZBXr16FeFwGD09Pejv72/4ycgb1qxtG6bGlVkuLb61Aiz+HUeGjZLk63/N6ZCPfsXwFLseHA4Huru7MTg4CJ/PB5vNhkKhgGQySXstM5kMHA7HuipumBmkradYLMLj8VSyTpLNfOpzQPEm8NZrwNth4IMyl3JvVNScowg1CdLSH9cQfnya0w7vHwVSVzkS1IMkf/p9rmhz167m/B4K4HQ60dPTg0AgAIZhYLPZkEwmkU6naaEnl8uho6PDeh+2KYLBIM6fP49yuQyGYXDkyBHYbDbhgzbdAXz0E0DvZwHmk0D2/wJzPwSuL3EkqYM+WZMgLf1xjSC7CCx8n9MN/90JjvTenNKPJF0fA1xMc34Xlejs7ERvby8CgQA6OjrAsiyWlpaQTCYxOzuLaDSKTZs2we12V1+AFlqCiYkJzMzMAOAmkCTJUYxtd3Lv0wd/D9jym8C1K7qk4LJ9kHr3P5IZyqGhIV30TAsqQEYLdw9xTeIAR5ovP8ulxl98Xnq8sF6f5M0bXMrepDluvbAWRxzXAvhrHwA0Prl38wYnLV0JAqUbwN33cTcVrUGyEeTi4iJCoRC6u7t1Wa9w6dIlZDIZDA8Po7Ozs+HjWVCBH5/miCxwoEJm5BNXayR5JQj8j6Pc/W5jjAKMAtEriZlvuVxGLpfD0tISwuEwgsEglpeXrZahJuMb3/gGMpkM7HY7Dhw40Djv6JCCyxIkacjVy7ePVKL27t1rpTLNROIyEJ3hIsXAAeH3GiHJl5/l2nx+95B0+m0SOJ1O2jLEMAxKpRJNwfktQx0dHdb71kBEIhHMz8/D5XLh8OHD+MQnPqHvE2hMwWXLPXpO0KRSKbrzwhLFm4x3Xuf+lUuD7+qunqYRp9viiZu+x26n1jta0tpjFEj7mdgVfXJyEpOTk6ac2jELiJHvyMiI8R0unge5G0nB/498Ci4bQZ4/fx4AdJmXDofDiMVi6OvrQ09PT8PHaxqWsxzBtLiFpSG8epKL9Javc7+PlOmE2kjy7Z9wX3voi1wKs8Zgs9mqWoYymYxgaodlWbhcLusDXydMTEygXC5j//79zYvUFaTgkhEkiR71mpfWe567aQj/qOKbeM8DXJHDYFcbXXElyEV6u4eArt0cWQKVQg0fSiPJJ/+Im8sGuB7INQ6+yxB/Mdn09DSmp6epcYYeOv16BbGD8/l8rfvAuasbuOsAJ0MlLnOR5f/+UW2C1IvQTEuQJD0l9995nWuVEa2GbFt07eaIrmt35WuNkmTqSuXYJqteN4paxhlk1441BKEeJL32+XwtPpPb4KXghhOkafXH1JWKqSwft1Zutw7MtmRlgSo47xKeF1mM3ghJXpm9fayh6p9dJ3C73RgdHcXo6Cji8TglS3Iz8/qIZoPovXa7vf2i8C3bpAmSWJLpQZCmtTe7Eqzc33Uf8OGPcPtyVwqVry9fr7YAa+LKgpq4eUP6PBohyeVsJYK8Z+2n10rg9Xrh9XoxNjYm8K4khR2rt7I2yAKudn19qghSb/2x3V8AWSR46fW9nwI+vINbDPTudeBajLuVblUecz0JzJ7jbvc8wKXhuxtocm0UpNosdQ5aSZK8Ju3yIdBG4HtX8tdHEM3SbBscm4W2S69FkCVIvQ1yTaU/kuIGANz5EY4cCT68A+jfAfR/Bkhdq9z4ZEn0yuA5jijveaC5xR1iSUYIUC+SJFqmFT3WhNz6CLIa1uyO6HqBZVlEo1G6e6gdYShB6h2NNg386PHu++Qf13U3d3v/ZoUo07+ofF9Kr2zGyoLwj7h/d+zUlyTfnLpdpDJRJb/FIL2V/PFGq7DDwQzZZRVB6hnxmbJ6ffOGsHqtZCnQHVuAu3u4241ljiivxYD3/rnyGCm90qiVBeT8P/c14M0f6UuS66C1xwi43W4EAgEEAgFa2CHRJVlKFggE1lVhh6xRGBpq34KfgCCt/kcIyfGujwHbVM7ibnNyWiVfr0xdExZ3pPTKex7QR9cj1Xcy5UIITy+StNAwrMIOZxiSTqfhcrnaOnqWJMh1rT+S9BSonV4rAV+vzKQrZCmlVwJc8aNRvZJU3/k6oZ4kaUE3iJeSBYNBQWHHbrfD7/evycJOuxdnCAQESWyGyELzRmBK/ZEUNwj03LnbwXA3ALh2tVqvBCp65ebbu6m16JW00iwiwUZJUq5tyIIucLvd2LNnj2xhh2EYDA0NrZnCTigUAsD5PbYzDIsgTZlekyZogOt9NGqlJNEr379ZaRni65W3Vip6pXMHN7WjRK8k1fcdO6WJVStJvvwsl7r/p79oz4b4NQaxaUYwGEQ6ncb58+dpYUcvl61WIJVKIZ1Og2GYtk6vAR5B6j3xYpYQWgB+c7ie0aMc7thS0StvLFfIUtyMTvTKHTu53kY5vZJEj8vXOUNcPUgyu8hF1Tt2WuTYZDgcDlrYSaVSmJ2dlSzs+Hw+U6XgZokeAR5B6jnxwrIs0uk07HZ7239CUGQXK6OFts3NIUg+tjkBn5+7vXudm9oR65X83kaxeQa/+u7cUWnu1iuS7Hussd/PQkPo6urC/v37aWGHzIGbsbBjpuCJEqSVXjc5eqyFD+8AHnqUu5+6xmmWYr1SbJ7RtbtSmPncEeEEjFaS5JtcWM3hbQGpwg4p6pDCDok621GrTKVSyOfzYBjGFFGvRZAEfP3x3k+17jzEEDejX4sB2aXK96Wa0W+tCCdgiLmtuFG9HkmSlF2vFiQLuoJf2FlYWKBRJbFi8/v9GBkZaSsiMlN6DdwmSL31R9MZVCQuV0YLt24Xjha2C6Sa0euZZxDX5HdeF36PX/ipRZIkql7Hzj1mAYkqpdyFyAx4OwQspiTIda8/vqNwtLBdINWMLmWeQVqW7nmgElkmXhcWfrp2cwR4c0VIkqQ4Y40WmgqkCX1kZATT09OIRCI0/SatQq2yFWsLY1yV2ASs8/Sa7KUgMANB8qHUPAOo6JUEV2a59p3UFS7ivOeBCklmF7l/rdFCU8LtdtOiDmlAJ61C09PTLRlrNFNxhsAiSH70eOdH1I8WthOUmmcAXJq9e4gjzetJjiQDB4AtWzmS3Hx7y9v9VvXazHA4HNTcd2FhAdPT08jn85icnMTU1BR6e3ubplOawZxCjE2W/miy9FoJlJpnELLcsRO4f5QjRaJJkqKPNV64ZsDXKUn1m++CbuSkzsLCAorFounMOData/2RbC0kWCsEyYdS84zrSa6AQ8wzNm+1GsPXKIhOyW8TIun3+fPnDempNGN6DQCb9EyJTRdC86NHZpdxo4XtAi3mGYnLVpFmjYLfJsSf1OEXdfbt29dwsGMGY1w5bNy1a9d4uVzG3r17G95HS2ybTGMA+uPTwMqvuPu7+9uzvccobHNyeuXufmDbdu5rhfeEj7me5HZgh38ErLwHbL2T26FtYc3B6XSit7cXw8PDcLlciMfjyOfzmJ+fb9iS7I033kA0GkV/f7/pCHKTnvqjqQo0pI0F4EYL7+5p7fnojQ2bANs24P1f1X8s3zyD9FfqYZ5hwZQYGBhAb28vJiYmEI1Gcf78eTgcDs3kZtb0GrhdxdZDf8zlcsjn83C5XG3VuS+Ldhot1IrNbuBDHwdsHwLKRaCYAW78Etj2ceBDO7nH/LoErCxxX68HcXGnUfMMC6aFw+HAoUOHMDExgVAoRF2E1IKsmnC5XKaLHgHg/wOi41TbUt/I2QAAAABJRU5ErkJggg==;connectable=0;" vertex="1" parent="1">
                    <mxGeometry x="230" y="-110" width="791.84" height="717" as="geometry"/>
                </mxCell>
                <mxCell id="12" value="" style="endArrow=none;html=1;strokeColor=#FF0000;strokeWidth=5;" edge="1" parent="1">
                    <mxGeometry width="50" height="50" relative="1" as="geometry">
                        <mxPoint x="930" y="410" as="sourcePoint"/>
                        <mxPoint x="780" y="250" as="targetPoint"/>
                    </mxGeometry>
                </mxCell>
                <mxCell id="16" value="" style="endArrow=none;html=1;strokeColor=#FF0000;strokeWidth=5;" edge="1" parent="1">
                    <mxGeometry width="50" height="50" relative="1" as="geometry">
                        <mxPoint x="750" y="280" as="sourcePoint"/>
                        <mxPoint x="780" y="250" as="targetPoint"/>
                    </mxGeometry>
                </mxCell>
                <mxCell id="17" value="" style="endArrow=none;html=1;strokeColor=#FF0000;strokeWidth=5;" edge="1" parent="1">
                    <mxGeometry width="50" height="50" relative="1" as="geometry">
                        <mxPoint x="750" y="280" as="sourcePoint"/>
                        <mxPoint x="670" y="260" as="targetPoint"/>
                    </mxGeometry>
                </mxCell>
                <mxCell id="18" value="" style="endArrow=none;html=1;strokeColor=#FF0000;strokeWidth=5;" edge="1" parent="1">
                    <mxGeometry width="50" height="50" relative="1" as="geometry">
                        <mxPoint x="620" y="320" as="sourcePoint"/>
                        <mxPoint x="670" y="260" as="targetPoint"/>
                    </mxGeometry>
                </mxCell>
                <mxCell id="19" value="" style="endArrow=none;html=1;strokeColor=#FF0000;strokeWidth=5;" edge="1" parent="1">
                    <mxGeometry width="50" height="50" relative="1" as="geometry">
                        <mxPoint x="560" y="410" as="sourcePoint"/>
                        <mxPoint x="620" y="320" as="targetPoint"/>
                    </mxGeometry>
                </mxCell>
                <mxCell id="20" value="" style="endArrow=none;html=1;strokeColor=#FF0000;strokeWidth=5;" edge="1" parent="1">
                    <mxGeometry width="50" height="50" relative="1" as="geometry">
                        <mxPoint x="310" y="320" as="sourcePoint"/>
                        <mxPoint x="560" y="410" as="targetPoint"/>
                    </mxGeometry>
                </mxCell>
                <mxCell id="21" value="" style="endArrow=none;html=1;strokeColor=#FF0000;strokeWidth=5;" edge="1" parent="1">
                    <mxGeometry width="50" height="50" relative="1" as="geometry">
                        <mxPoint x="310" y="320" as="sourcePoint"/>
                        <mxPoint x="340" y="210" as="targetPoint"/>
                    </mxGeometry>
                </mxCell>
                <mxCell id="22" value="" style="endArrow=none;html=1;strokeColor=#FF0000;strokeWidth=5;" edge="1" parent="1">
                    <mxGeometry width="50" height="50" relative="1" as="geometry">
                        <mxPoint x="340" y="210" as="sourcePoint"/>
                        <mxPoint x="460" y="30" as="targetPoint"/>
                    </mxGeometry>
                </mxCell>
                <mxCell id="23" value="" style="endArrow=none;html=1;strokeColor=#FF0000;strokeWidth=5;" edge="1" parent="1">
                    <mxGeometry width="50" height="50" relative="1" as="geometry">
                        <mxPoint x="680" y="170" as="sourcePoint"/>
                        <mxPoint x="460" y="30" as="targetPoint"/>
                    </mxGeometry>
                </mxCell>
                <mxCell id="24" value="" style="endArrow=none;html=1;strokeColor=#FF0000;strokeWidth=5;" edge="1" parent="1">
                    <mxGeometry width="50" height="50" relative="1" as="geometry">
                        <mxPoint x="680" y="170" as="sourcePoint"/>
                        <mxPoint x="650" y="260" as="targetPoint"/>
                    </mxGeometry>
                </mxCell>
                <mxCell id="25" value="" style="endArrow=none;html=1;strokeColor=#FF0000;strokeWidth=5;" edge="1" parent="1">
                    <mxGeometry width="50" height="50" relative="1" as="geometry">
                        <mxPoint x="650" y="250" as="sourcePoint"/>
                        <mxPoint x="540" y="410" as="targetPoint"/>
                    </mxGeometry>
                </mxCell>
                <mxCell id="26" value="" style="endArrow=none;html=1;strokeColor=#FF0000;strokeWidth=5;" edge="1" parent="1">
                    <mxGeometry width="50" height="50" relative="1" as="geometry">
                        <mxPoint x="750" y="490" as="sourcePoint"/>
                        <mxPoint x="540" y="410" as="targetPoint"/>
                    </mxGeometry>
                </mxCell>
                <mxCell id="28" value="" style="endArrow=none;html=1;strokeColor=#FF0000;strokeWidth=5;" edge="1" parent="1">
                    <mxGeometry width="50" height="50" relative="1" as="geometry">
                        <mxPoint x="750" y="490" as="sourcePoint"/>
                        <mxPoint x="860" y="450" as="targetPoint"/>
                    </mxGeometry>
                </mxCell>
                <mxCell id="29" value="" style="endArrow=none;html=1;strokeColor=#FF0000;strokeWidth=5;" edge="1" parent="1">
                    <mxGeometry width="50" height="50" relative="1" as="geometry">
                        <mxPoint x="860" y="450" as="sourcePoint"/>
                        <mxPoint x="890" y="470" as="targetPoint"/>
                    </mxGeometry>
                </mxCell>
                <mxCell id="30" value="" style="curved=1;endArrow=classic;html=1;strokeColor=#FF0000;strokeWidth=5;" edge="1" parent="1">
                    <mxGeometry width="50" height="50" relative="1" as="geometry">
                        <mxPoint x="890" y="470" as="sourcePoint"/>
                        <mxPoint x="930" y="410" as="targetPoint"/>
                        <Array as="points">
                            <mxPoint x="930" y="470"/>
                        </Array>
                    </mxGeometry>
                </mxCell>
            </root>
        </mxGraphModel>
    </diagram>
</mxfile>